<?xml version="1.0" encoding="utf-8"?>
<!-- Generator: Adobe Illustrator 16.0.0, SVG Export Plug-In . SVG Version: 6.00 Build 0)  -->
<!DOCTYPE svg PUBLIC "-//W3C//DTD SVG 1.1//EN" "http://www.w3.org/Graphics/SVG/1.1/DTD/svg11.dtd">
<svg version="1.1" id="Layer_1" xmlns="http://www.w3.org/2000/svg" xmlns:xlink="http://www.w3.org/1999/xlink" x="0px" y="0px"
	 width="2252px" height="762px" viewBox="0 0 2252 762" enable-background="new 0 0 2252 762" xml:space="preserve">
<rect x="563" y="190.5" fill="#E5E4E1" width="1126" height="381"/>
<path fill="#AFACA9" stroke="#231F20" stroke-width="2" stroke-miterlimit="10" d="M1035.561,571.5V311.843
	c0,0-1.716-7.208,17.85-6.865c19.566,0.343,172.319,0,172.319,0s17.85-2.06,16.477,39.819l29.178,13.044l2.059,16.477l-30.894,2.06
	V571.5H1035.561z"/>
<polygon fill="#8E8E8A" stroke="#231F20" stroke-width="2" stroke-miterlimit="10" points="1170.436,392.072 1215.202,390.946 
	1210.135,404.742 1214.639,412.766 "/>
<g>
	<circle fill="#565554" stroke="#000000" stroke-width="2" stroke-miterlimit="10" cx="1089.229" cy="371.965" r="23.872"/>
	<circle fill="#565554" stroke="#000000" stroke-width="2" stroke-miterlimit="10" cx="1089.813" cy="434.158" r="23.873"/>
</g>
<g>
	<polygon fill="#917063" points="1107.005,401.856 1234.457,418.536 1233.326,432 1105.052,412.766 	"/>
	<polygon fill="#4E4347" points="1106.606,404.082 1234.213,421.438 1234.006,423.903 1106.216,406.264 	"/>
	<polygon fill="#4E4347" points="1105.85,408.309 1233.791,426.455 1233.592,428.837 1105.496,410.285 	"/>
</g>
<g>
	<polygon fill="#917063" points="1249.871,427.096 1376.108,451.303 1374.182,464.677 1247.273,437.87 	"/>
	<polygon fill="#4E4347" points="1249.34,429.295 1375.693,454.185 1375.34,456.635 1248.82,431.448 	"/>
	<polygon fill="#4E4347" points="1248.334,433.469 1374.975,459.168 1374.634,461.534 1247.864,435.422 	"/>
</g>
<g>
	<polygon fill="#917063" points="1270.426,464.672 1398.963,464.376 1399.62,477.871 1269.93,475.744 	"/>
	<polygon fill="#4E4347" points="1270.324,466.932 1399.104,467.283 1399.225,469.756 1270.225,469.145 	"/>
	<polygon fill="#4E4347" points="1270.132,471.221 1399.35,472.313 1399.465,474.7 1270.043,473.228 	"/>
</g>
<g>
	<polygon fill="#917063" points="1270.375,474.996 1398.912,474.7 1399.57,488.195 1269.879,486.068 	"/>
	<polygon fill="#4E4347" points="1270.273,477.256 1399.055,477.607 1399.174,480.08 1270.174,479.469 	"/>
	<polygon fill="#4E4347" points="1270.082,481.545 1399.299,482.637 1399.415,485.024 1269.992,483.552 	"/>
</g>
<g>
	<polygon fill="#917063" points="1270.324,485.32 1398.862,485.024 1399.52,498.52 1269.828,496.393 	"/>
	<polygon fill="#4E4347" points="1270.223,487.58 1399.004,487.932 1399.124,490.404 1270.123,489.793 	"/>
	<polygon fill="#4E4347" points="1270.031,491.869 1399.248,492.961 1399.365,495.349 1269.941,493.876 	"/>
</g>
<g>
	<polygon fill="#917063" points="1270.274,495.645 1398.813,495.349 1399.469,508.844 1269.778,506.717 	"/>
	<polygon fill="#4E4347" points="1270.173,497.904 1398.953,498.256 1399.074,500.729 1270.073,500.117 	"/>
	<polygon fill="#4E4347" points="1269.98,502.193 1399.198,503.285 1399.314,505.673 1269.892,504.2 	"/>
</g>
<g>
	<polygon fill="#917063" points="1270.225,505.969 1398.762,505.673 1399.419,519.168 1269.729,517.041 	"/>
	<polygon fill="#4E4347" points="1270.123,508.229 1398.903,508.58 1399.023,511.053 1270.023,510.441 	"/>
	<polygon fill="#4E4347" points="1269.931,512.518 1399.148,513.609 1399.264,515.997 1269.842,514.524 	"/>
</g>
<g>
	<polygon fill="#917063" points="1270.174,516.293 1398.711,515.997 1399.369,529.492 1269.678,527.365 	"/>
	<polygon fill="#4E4347" points="1270.072,518.553 1398.854,518.904 1398.973,521.377 1269.973,520.766 	"/>
	<polygon fill="#4E4347" points="1269.881,522.842 1399.098,523.934 1399.214,526.321 1269.791,524.849 	"/>
</g>
<g>
	<polygon fill="#917063" points="1270.123,526.617 1398.661,526.321 1399.318,539.816 1269.627,537.689 	"/>
	<polygon fill="#4E4347" points="1270.021,528.877 1398.803,529.229 1398.923,531.701 1269.922,531.09 	"/>
	<polygon fill="#4E4347" points="1269.83,533.166 1399.047,534.258 1399.164,536.646 1269.74,535.173 	"/>
</g>
<line fill="none" stroke="#231F20" stroke-width="2" stroke-miterlimit="10" x1="1135.172" y1="446.965" x2="1229.583" y2="460.304"/>
<line fill="none" stroke="#231F20" stroke-width="2" stroke-miterlimit="10" x1="1138.76" y1="420.325" x2="1231.803" y2="433.602"/>
<polygon fill="#B3ABAC" stroke="#231F20" stroke-width="2" stroke-miterlimit="10" points="1409.533,542.309 1409.533,418.572 
	1403.604,418.572 1403.604,542.309 1253.789,542.309 1253.789,548.922 1411.813,548.922 1411.813,542.309 "/>
<path fill="#B3AEA8" stroke="#231F20" stroke-width="2" stroke-miterlimit="10" d="M1397.165,559.596
	c0,5.895-4.78,10.67-10.675,10.67c-0.605,0-1.195-0.051-1.77-0.15c-5.051-0.84-8.9-5.23-8.9-10.52c0-5.365,3.959-9.811,9.115-10.561
	c0.51-0.075,1.024-0.115,1.555-0.115C1392.385,548.92,1397.165,553.7,1397.165,559.596z"/>
<path fill="#8B8580" stroke="#231F20" stroke-width="2" stroke-miterlimit="10" d="M1384.721,570.115
	c-0.511,0.08-1.021,0.15-1.546,0.15c-5.896,0-10.675-4.775-10.675-10.67c0-5.896,4.779-10.676,10.675-10.676
	c0.56,0,1.22,0.03,1.761,0.115c-5.156,0.75-9.115,5.195-9.115,10.561C1375.82,564.885,1379.67,569.275,1384.721,570.115z"/>
<circle fill="none" stroke="#231F20" stroke-width="2" stroke-miterlimit="10" cx="1386.232" cy="559.451" r="3.903"/>
<polygon fill="#B3A9A2" stroke="#231F20" stroke-width="2" stroke-miterlimit="10" points="1393.707,548.92 1385.631,558.832 
	1376.547,548.922 "/>
<path fill="#86847D" stroke="#231F20" stroke-width="2" stroke-miterlimit="10" d="M1287.846,570.54
	c-1.046,0.34-2.166,0.521-3.326,0.521c-5.984,0-10.834-4.851-10.834-10.836c0-5.984,4.85-10.834,10.834-10.834
	c0.365,0,0.726,0.02,1.08,0.055c-4.354,1.404-7.5,5.494-7.5,10.314C1278.1,565.375,1282.37,569.99,1287.846,570.54z"/>
<path fill="#B0ADA7" stroke="#231F20" stroke-width="2" stroke-miterlimit="10" d="M1295.355,560.225c0,4.825-3.15,8.91-7.51,10.315
	c-5.476-0.55-9.746-5.165-9.746-10.78c0-4.82,3.146-8.91,7.5-10.314C1291.08,549.984,1295.355,554.605,1295.355,560.225z"/>
<rect x="1499.302" y="566.993" fill="none" stroke="#231F20" stroke-width="2" stroke-miterlimit="10" width="51.29" height="4.507"/>
<polyline fill="#B1ABA6" stroke="#231F20" stroke-width="2" stroke-miterlimit="10" points="1510.334,566.993 1510.334,299 
	1540,299 1540,566.993 "/>
<g>
	<g>
		<polygon fill="#B1ABA6" stroke="#231F20" stroke-width="2" stroke-miterlimit="10" points="1510.334,308 1488.666,315.333 
			1501.334,335.667 1510.334,324.667 		"/>
		<path fill="#B1ABA6" stroke="#231F20" stroke-width="2" stroke-miterlimit="10" d="M1488.666,315.333l-28.332,52
			c0,0-7.667-2.333-15-9.333l4.332,11.667c0,0,35,12.999,39,12.999s6.668-1.666,6.668-1.666l6-13l-17-8l17-24.333L1488.666,315.333z
			"/>
	</g>
</g>
<path fill="#ACA9A2" stroke="#000000" stroke-width="2" stroke-miterlimit="10" d="M970.538,571.5v-29.488l-11.323-22.066H805.042
	c0,0-8.13-1.742-8.71-10.742s0-35.131,0-35.131h-54.004V571.5H970.538z"/>
<polygon fill="#ABA99F" stroke="#000000" stroke-width="2" stroke-miterlimit="10" points="563,423.842 563,485.976 
	742.328,485.976 742.328,423.842 742.328,422.653 563,422.653 "/>
<g>
	<rect x="563" y="406.18" fill="#917063" width="525.639" height="2.129"/>
	<rect x="563" y="404.051" fill="#4E4347" width="525.639" height="2.129"/>
	<rect x="563" y="401.922" fill="#917063" width="525.639" height="2.129"/>
	<rect x="563" y="399.793" fill="#4E4347" width="525.639" height="2.129"/>
	<rect x="563" y="397.664" fill="#917063" width="525.639" height="2.129"/>
</g>
<polygon fill="#AAA7A3" stroke="#000000" stroke-width="2" stroke-miterlimit="10" points="1012.113,408.309 1012.113,422.082 
	1047.069,422.082 1058.916,408.309 "/>
<rect x="563" y="356.28" fill="#ADA8A5" stroke="#000000" stroke-width="2" stroke-miterlimit="10" width="135.263" height="21.613"/>
<polygon fill="#ADA8A5" stroke="#000000" stroke-width="2" stroke-miterlimit="10" points="698.263,377.893 731.318,377.893 
	731.318,318.987 871.333,318.987 871.333,278.333 671.333,278.333 671.333,334.333 698.263,334.333 "/>
<g>
	<g>
		<polygon points="939.199,420.316 941.706,417.473 940.453,420.943 		"/>
		<polygon points="940.424,420.928 942.992,418.139 941.664,421.582 		"/>
		<polygon points="941.636,421.566 944.264,418.834 942.861,422.247 		"/>
		<polygon points="942.833,422.23 945.52,419.555 944.044,422.938 		"/>
		<polygon points="944.016,422.92 946.76,420.304 945.211,423.653 		"/>
		<polygon points="945.184,423.635 947.983,421.079 946.363,424.395 		"/>
		<polygon points="946.336,424.376 949.19,421.881 947.498,425.16 		"/>
		<polygon points="947.472,425.141 950.379,422.709 948.617,425.95 		"/>
		<polygon points="948.591,425.931 951.55,423.562 949.718,426.765 		"/>
		<polygon points="949.692,426.744 952.702,424.439 950.801,427.603 		"/>
		<polygon points="950.776,427.582 953.835,425.343 951.866,428.464 		"/>
		<polygon points="951.841,428.441 954.948,426.27 952.912,429.348 		"/>
		<polygon points="952.888,429.325 956.041,427.221 953.938,430.254 		"/>
		<polygon points="953.915,430.23 957.112,428.195 954.945,431.182 		"/>
		<polygon points="954.922,431.158 958.163,429.193 955.932,432.132 		"/>
		<polygon points="955.909,432.107 959.192,430.213 956.897,433.104 		"/>
		<polygon points="956.875,433.078 960.198,431.256 957.842,434.095 		"/>
		<polygon points="957.82,434.07 961.182,432.318 958.765,435.106 		"/>
		<polygon points="958.744,435.081 962.143,433.403 959.665,436.139 		"/>
		<polygon points="959.645,436.112 963.079,434.508 960.543,437.189 		"/>
		<polygon points="960.523,437.162 963.992,435.633 961.398,438.259 		"/>
		<polygon points="961.379,438.232 964.88,436.777 962.23,439.347 		"/>
		<polygon points="962.212,439.319 965.743,437.941 963.039,440.452 		"/>
		<polygon points="963.021,440.424 966.58,439.123 963.822,441.575 		"/>
		<polygon points="963.806,441.547 967.393,440.323 964.582,442.715 		"/>
		<polygon points="964.565,442.686 968.178,441.541 965.316,443.871 		"/>
		<polygon points="965.301,443.842 968.938,442.774 966.026,445.042 		"/>
		<polygon points="966.011,445.012 969.67,444.024 966.71,446.229 		"/>
		<polygon points="966.696,446.198 970.375,445.29 967.368,447.43 		"/>
		<polygon points="967.354,447.398 971.053,446.57 968,448.645 		"/>
		<polygon points="967.987,448.613 971.703,447.865 968.606,449.872 		"/>
		<polygon points="968.594,449.842 972.324,449.174 969.185,451.113 		"/>
		<polygon points="969.173,451.082 972.917,450.496 969.737,452.367 		"/>
		<polygon points="969.726,452.335 973.482,451.83 970.262,453.632 		"/>
		<polygon points="970.251,453.6 974.018,453.176 970.759,454.908 		"/>
		<polygon points="970.749,454.875 974.523,454.533 971.229,456.194 		"/>
		<polygon points="971.22,456.162 975,455.901 971.67,457.49 		"/>
		<polygon points="971.662,457.457 975.447,457.279 972.083,458.797 		"/>
		<polygon points="972.076,458.763 975.864,458.666 972.469,460.111 		"/>
		<polygon points="972.461,460.076 976.251,460.063 972.825,461.434 		"/>
		<polygon points="972.818,461.398 976.608,461.467 973.153,462.763 		"/>
		<polygon points="973.147,462.729 976.934,462.879 973.452,464.1 		"/>
		<polygon points="973.447,464.064 977.229,464.297 973.722,465.441 		"/>
		<polygon points="973.718,465.407 977.495,465.721 973.963,466.79 		"/>
		<polygon points="973.959,466.756 977.729,467.15 974.175,468.143 		"/>
		<polygon points="974.172,468.108 977.932,468.585 974.357,469.5 		"/>
		<polygon points="974.355,469.466 978.104,470.023 974.51,470.861 		"/>
		<polygon points="974.509,470.826 978.244,471.465 974.634,472.225 		"/>
		<polygon points="974.633,472.19 978.354,472.91 974.728,473.592 		"/>
		<polygon points="974.728,473.557 978.433,474.356 974.792,474.959 		"/>
		<polygon points="974.793,474.925 978.479,475.805 974.827,476.328 		"/>
		<polygon points="974.828,476.294 978.495,477.253 974.832,477.698 		"/>
		<polygon points="974.834,477.664 978.479,478.701 974.808,479.067 		"/>
		<polygon points="974.811,479.033 978.432,480.149 974.753,480.436 		"/>
		<polygon points="974.757,480.401 978.354,481.596 974.669,481.803 		"/>
		<polygon points="974.674,481.769 978.244,483.041 974.556,483.167 		"/>
		<polygon points="974.562,483.133 978.104,484.482 974.413,484.529 		"/>
		<polygon points="974.419,484.496 977.931,485.921 974.241,485.887 		"/>
		<polygon points="974.248,485.854 977.728,487.355 974.04,487.242 		"/>
		<polygon points="974.047,487.209 977.494,488.785 973.809,488.592 		"/>
		<polygon points="973.817,488.559 977.229,490.209 973.549,489.937 		"/>
		<polygon points="973.558,489.904 976.934,491.627 973.26,491.275 		"/>
		<polygon points="973.27,491.242 976.607,493.039 972.942,492.607 		"/>
		<polygon points="972.952,492.575 976.25,494.443 972.596,493.932 		"/>
		<polygon points="972.606,493.9 975.863,495.84 972.22,495.249 		"/>
		<polygon points="972.232,495.218 975.446,497.227 971.816,496.558 		"/>
		<polygon points="971.829,496.527 974.999,498.604 971.385,497.857 		"/>
		<polygon points="971.398,497.826 974.522,499.973 970.925,499.147 		"/>
		<polygon points="970.938,499.117 974.016,501.33 970.438,500.428 		"/>
		<polygon points="970.452,500.396 973.48,502.676 969.922,501.696 		"/>
		<polygon points="969.938,501.666 972.916,504.01 969.38,502.953 		"/>
		<polygon points="969.396,502.924 972.322,505.332 968.811,504.199 		"/>
		<polygon points="968.827,504.169 971.7,506.641 968.214,505.432 		"/>
		<polygon points="968.231,505.402 971.051,507.936 967.591,506.652 		"/>
		<polygon points="967.608,506.621 970.373,509.216 966.941,507.857 		"/>
		<polygon points="966.96,507.828 969.667,510.481 966.267,509.049 		"/>
		<polygon points="966.286,509.02 968.935,511.731 965.566,510.227 		"/>
		<polygon points="965.585,510.197 968.176,512.965 964.84,511.387 		"/>
		<polygon points="964.86,511.358 967.39,514.182 964.089,512.532 		"/>
		<polygon points="964.11,512.504 966.578,515.382 963.313,513.661 		"/>
		<polygon points="963.335,513.633 965.74,516.563 962.514,514.773 		"/>
		<polygon points="962.536,514.745 964.877,517.727 961.689,515.867 		"/>
		<polygon points="961.713,515.84 963.988,518.871 960.843,516.943 		"/>
		<polygon points="960.866,516.916 963.076,519.996 959.973,518.001 		"/>
		<polygon points="959.996,517.975 962.139,521.102 959.08,519.039 		"/>
		<polygon points="959.104,519.014 961.179,522.186 958.164,520.059 		"/>
		<polygon points="958.189,520.033 960.195,523.25 957.228,521.057 		"/>
		<polygon points="957.253,521.033 959.188,524.291 956.269,522.035 		"/>
		<polygon points="956.295,522.012 958.16,525.312 955.29,522.992 		"/>
		<polygon points="955.316,522.97 957.109,526.309 954.29,523.928 		"/>
		<polygon points="954.317,523.906 956.037,527.283 953.27,524.842 		"/>
		<polygon points="953.298,524.82 954.944,528.234 952.23,525.734 		"/>
		<polygon points="952.259,525.713 953.831,529.162 951.172,526.604 		"/>
		<polygon points="951.201,526.583 952.698,530.064 950.096,527.449 		"/>
		<polygon points="950.125,527.43 951.546,530.943 949,528.271 		"/>
		<polygon points="949.03,528.253 950.375,531.796 947.888,529.07 		"/>
		<polygon points="947.918,529.053 949.187,532.623 946.758,529.845 		"/>
		<polygon points="946.789,529.827 947.979,533.426 945.612,530.594 		"/>
		<polygon points="945.644,530.578 946.756,534.201 944.45,531.318 		"/>
		<polygon points="944.481,531.303 945.516,534.949 943.272,532.018 		"/>
		<polygon points="943.305,532.004 944.259,535.671 942.081,532.691 		"/>
		<polygon points="942.113,532.678 942.988,536.365 940.874,533.34 		"/>
		<polygon points="940.906,533.326 941.702,537.031 939.654,533.961 		"/>
		<polygon points="939.687,533.948 940.401,537.67 938.42,534.557 		"/>
		<polygon points="938.453,534.544 939.087,538.281 937.174,535.125 		"/>
		<polygon points="937.208,535.113 937.761,538.863 935.916,535.666 		"/>
		<polygon points="935.95,535.654 936.422,539.416 934.646,536.18 		"/>
		<polygon points="934.681,536.17 935.071,539.939 933.366,536.666 		"/>
		<polygon points="933.4,536.656 933.709,540.434 932.076,537.125 		"/>
		<polygon points="932.11,537.115 932.337,540.898 930.776,537.555 		"/>
		<polygon points="930.811,537.547 930.956,541.334 929.467,537.957 		"/>
		<polygon points="929.501,537.949 929.564,541.739 928.149,538.33 		"/>
		<polygon points="928.184,538.324 928.165,542.114 926.824,538.676 		"/>
		<polygon points="926.859,538.67 926.758,542.459 925.492,538.992 		"/>
		<polygon points="925.526,538.986 925.344,542.773 924.153,539.279 		"/>
		<polygon points="924.188,539.275 923.923,543.057 922.808,539.538 		"/>
		<polygon points="922.843,539.534 922.497,543.309 921.458,539.768 		"/>
		<polygon points="921.493,539.764 921.065,543.53 920.103,539.968 		"/>
		<polygon points="920.138,539.965 919.629,543.721 918.744,540.139 		"/>
		<polygon points="918.779,540.137 918.189,543.881 917.382,540.279 		"/>
		<polygon points="917.417,540.278 916.746,544.01 916.017,540.392 		"/>
		<polygon points="916.053,540.391 915.3,544.106 914.65,540.474 		"/>
		<polygon points="914.686,540.474 913.853,544.172 913.282,540.526 		"/>
		<polygon points="913.317,540.527 912.405,544.207 911.912,540.549 		"/>
		<polygon points="911.948,540.551 910.956,544.21 910.543,540.543 		"/>
		<polygon points="910.578,540.545 909.508,544.182 909.174,540.506 		"/>
		<polygon points="909.209,540.51 908.06,544.122 907.806,540.44 		"/>
		<polygon points="907.841,540.444 906.614,544.031 906.44,540.346 		"/>
		<polygon points="906.475,540.35 905.171,543.909 905.076,540.221 		"/>
		<polygon points="905.111,540.226 903.73,543.756 903.715,540.066 		"/>
		<polygon points="903.75,540.072 902.293,543.571 902.358,539.882 		"/>
		<polygon points="902.394,539.889 900.86,543.355 901.005,539.668 		"/>
		<polygon points="901.04,539.676 899.433,543.109 899.657,539.426 		"/>
		<polygon points="899.692,539.435 898.011,542.832 898.315,539.154 		"/>
		<polygon points="898.35,539.164 896.596,542.523 896.979,538.854 		"/>
		<polygon points="897.013,538.864 895.187,542.186 895.649,538.525 		"/>
		<polygon points="895.684,538.535 893.786,541.816 894.328,538.168 		"/>
		<polygon points="894.361,538.178 892.394,541.418 893.014,537.781 		"/>
		<polygon points="893.048,537.793 891.01,540.988 891.709,537.365 		"/>
		<polygon points="891.742,537.379 889.636,540.529 890.413,536.923 		"/>
		<polygon points="890.446,536.936 888.271,540.041 889.127,536.452 		"/>
		<polygon points="889.16,536.466 886.919,539.523 887.852,535.953 		"/>
		<polygon points="887.884,535.968 885.577,538.977 886.587,535.428 		"/>
		<polygon points="886.619,535.442 884.248,538.4 885.335,534.875 		"/>
		<polygon points="885.366,534.89 882.932,537.795 884.094,534.295 		"/>
		<polygon points="884.125,534.311 881.628,537.162 882.867,533.688 		"/>
		<polygon points="882.897,533.703 880.339,536.502 881.652,533.055 		"/>
		<polygon points="881.683,533.07 879.065,535.813 880.452,532.395 		"/>
		<polygon points="880.482,532.412 877.806,535.097 879.267,531.709 		"/>
		<polygon points="879.296,531.728 876.563,534.354 878.096,530.998 		"/>
		<polygon points="878.125,531.018 875.335,533.584 876.941,530.262 		"/>
		<polygon points="876.97,530.282 874.125,532.787 875.802,529.502 		"/>
		<polygon points="875.831,529.521 872.933,531.965 874.68,528.717 		"/>
		<polygon points="874.708,528.737 871.758,531.117 873.575,527.907 		"/>
		<polygon points="873.603,527.929 870.602,530.244 872.488,527.074 		"/>
		<polygon points="872.516,527.096 869.465,529.346 871.42,526.218 		"/>
		<polygon points="871.446,526.24 868.348,528.424 870.37,525.338 		"/>
		<polygon points="870.396,525.361 867.251,527.478 869.339,524.437 		"/>
		<polygon points="869.364,524.46 866.175,526.508 868.328,523.513 		"/>
		<polygon points="868.353,523.537 865.12,525.516 867.337,522.567 		"/>
		<polygon points="867.362,522.592 864.086,524.5 866.367,521.601 		"/>
		<polygon points="866.392,521.625 863.075,523.462 865.418,520.613 		"/>
		<polygon points="865.442,520.639 862.087,522.402 864.491,519.605 		"/>
		<polygon points="864.514,519.631 861.122,521.322 863.586,518.578 		"/>
		<polygon points="863.608,518.604 860.18,520.222 862.703,517.531 		"/>
		<polygon points="862.725,517.558 859.263,519.101 861.843,516.465 		"/>
		<polygon points="861.864,516.492 858.369,517.96 861.006,515.381 		"/>
		<polygon points="861.027,515.408 857.501,516.801 860.193,514.279 		"/>
		<polygon points="860.213,514.307 856.658,515.622 859.404,513.16 		"/>
		<polygon points="859.424,513.188 855.841,514.426 858.64,512.023 		"/>
		<polygon points="858.658,512.053 855.05,513.213 857.899,510.871 		"/>
		<polygon points="857.918,510.9 854.285,511.982 857.185,509.703 		"/>
		<polygon points="857.203,509.732 853.547,510.735 856.495,508.52 		"/>
		<polygon points="856.513,508.549 852.836,509.473 855.832,507.322 		"/>
		<polygon points="855.849,507.352 852.152,508.195 855.194,506.109 		"/>
		<polygon points="855.21,506.14 851.497,506.904 854.583,504.885 		"/>
		<polygon points="854.599,504.914 850.87,505.598 853.999,503.646 		"/>
		<polygon points="854.013,503.676 850.271,504.279 853.441,502.395 		"/>
		<polygon points="853.455,502.426 849.7,502.947 852.911,501.133 		"/>
		<polygon points="852.924,501.164 849.159,501.604 852.408,499.858 		"/>
		<polygon points="852.42,499.891 848.646,500.249 851.933,498.574 		"/>
		<polygon points="851.944,498.605 848.164,498.883 851.485,497.279 		"/>
		<polygon points="851.497,497.313 847.71,497.508 851.066,495.977 		"/>
		<polygon points="851.077,496.008 847.287,496.122 850.675,494.664 		"/>
		<polygon points="850.685,494.695 846.894,494.728 850.313,493.343 		"/>
		<polygon points="850.322,493.375 846.531,493.325 849.979,492.015 		"/>
		<polygon points="849.987,492.047 846.198,491.915 849.674,490.68 		"/>
		<polygon points="849.682,490.713 845.896,490.498 849.398,489.338 		"/>
		<polygon points="849.405,489.371 845.625,489.075 849.151,487.991 		"/>
		<polygon points="849.157,488.024 845.385,487.646 848.933,486.639 		"/>
		<polygon points="848.938,486.672 845.175,486.213 848.745,485.283 		"/>
		<polygon points="848.75,485.316 844.997,484.775 848.585,483.922 		"/>
		<polygon points="848.59,483.955 844.85,483.334 848.456,482.559 		"/>
		<polygon points="848.459,482.592 844.733,481.891 848.355,481.193 		"/>
		<polygon points="848.358,481.227 844.648,480.443 848.285,479.826 		"/>
		<polygon points="848.287,479.859 844.595,478.996 848.244,478.457 		"/>
		<polygon points="848.245,478.49 844.573,477.547 848.233,477.088 		"/>
		<polygon points="848.233,477.121 844.582,476.099 848.251,475.718 		"/>
		<polygon points="848.251,475.752 844.623,474.65 848.299,474.35 		"/>
		<polygon points="848.298,474.383 844.695,473.203 848.377,472.982 		"/>
		<polygon points="848.375,473.016 844.798,471.759 848.484,471.617 		"/>
		<polygon points="848.481,471.65 844.933,470.316 848.621,470.254 		"/>
		<polygon points="848.617,470.287 845.098,468.877 848.787,468.895 		"/>
		<polygon points="848.783,468.928 845.295,467.442 848.982,467.539 		"/>
		<polygon points="848.978,467.572 845.522,466.012 849.207,466.188 		"/>
		<polygon points="849.201,466.222 845.781,464.586 849.461,464.842 		"/>
		<polygon points="849.455,464.876 846.07,463.167 849.744,463.502 		"/>
		<polygon points="849.737,463.535 846.391,461.754 850.056,462.169 		"/>
		<polygon points="850.048,462.202 846.741,460.348 850.396,460.842 		"/>
		<polygon points="850.388,460.875 847.122,458.95 850.766,459.523 		"/>
		<polygon points="850.757,459.557 847.533,457.561 851.163,458.213 		"/>
		<polygon points="851.153,458.246 847.974,456.182 851.589,456.911 		"/>
	</g>
	<g>
		<g>
			<polygon points="847.281,456.959 850.707,457.214 847.72,455.48 			"/>
			<polygon points="847.613,455.885 851.048,455.926 847.958,454.381 			"/>
			<polygon points="847.877,454.793 851.308,454.619 848.128,453.27 			"/>
			<polygon points="848.073,453.686 851.486,453.298 848.229,452.15 			"/>
			<polygon points="848.199,452.568 851.581,451.969 848.258,451.026 			"/>
			<polygon points="848.255,451.445 851.593,450.637 848.218,449.902 			"/>
			<polygon points="848.241,450.321 851.522,449.306 848.108,448.784 			"/>
			<polygon points="848.157,449.2 851.369,447.982 847.929,447.674 			"/>
			<polygon points="848.003,448.086 851.133,446.67 847.681,446.578 			"/>
			<polygon points="847.78,446.984 850.815,445.376 847.364,445.498 			"/>
			<polygon points="847.489,445.898 850.418,444.104 846.981,444.441 			"/>
			<polygon points="847.131,444.833 849.942,442.859 846.533,443.41 			"/>
		</g>
		<polygon points="846.707,443.792 849.39,441.646 846.021,442.409 		"/>
		<polygon points="846.219,442.779 848.763,440.471 845.448,441.441 		"/>
		<polygon points="845.668,441.799 848.064,439.336 844.816,440.512 		"/>
		<polygon points="845.058,440.854 847.295,438.248 844.127,439.623 		"/>
		<polygon points="844.39,439.95 846.46,437.209 843.384,438.779 		"/>
		<polygon points="843.667,439.09 845.563,436.225 842.59,437.984 		"/>
		<polygon points="842.892,438.275 844.604,435.298 841.748,437.239 		"/>
		<polygon points="842.066,437.512 843.591,434.433 840.861,436.549 		"/>
		<polygon points="841.196,436.8 842.525,433.633 839.933,435.914 		"/>
		<polygon points="840.283,436.145 841.412,432.9 838.967,435.339 		"/>
		<polygon points="839.33,435.547 840.255,432.238 837.967,434.825 		"/>
		<polygon points="838.343,435.01 839.06,431.65 836.937,434.375 		"/>
		<polygon points="837.323,434.536 837.829,431.139 835.88,433.99 		"/>
		<polygon points="836.276,434.127 836.569,430.703 834.802,433.671 		"/>
		<polygon points="835.206,433.783 835.285,430.348 833.706,433.42 		"/>
		<polygon points="834.116,433.506 833.981,430.074 832.597,433.238 		"/>
		<polygon points="833.011,433.299 832.662,429.881 831.479,433.125 		"/>
		<polygon points="831.896,433.16 831.334,429.771 830.354,433.083 		"/>
		<polygon points="830.773,433.092 830.002,429.744 829.23,433.111 		"/>
		<polygon points="829.649,433.093 828.67,429.801 828.11,433.209 		"/>
		<polygon points="828.527,433.164 827.345,429.939 826.999,433.376 		"/>
	</g>
</g>
<path d="M826.999,433.376c0,0-170.559,24.046-263.999,45.782v-2.739c98.75-23.261,264.345-46.479,264.345-46.479L826.999,433.376z"
	/>
<rect x="600.876" y="377.893" fill="#ADA8A5" stroke="#000000" stroke-width="2" stroke-miterlimit="10" width="15.462" height="6.309"/>
<path fill="none" stroke="#000000" stroke-width="2" stroke-miterlimit="10" d="M616.338,384.202l20.773,9.165
	c0,0,7.613,3.4,12.797-1.539"/>
<path fill="none" stroke="#000000" stroke-width="2" stroke-miterlimit="10" d="M600.908,384.202l-20.773,9.165
	c0,0-7.613,3.4-12.797-1.539"/>
<g>
	<g>
		<polygon points="808.539,320.194 805.335,318.852 808.715,318.922 		"/>
		<polygon points="808.71,318.952 805.537,317.54 808.915,317.684 		"/>
		<polygon points="808.909,317.713 805.768,316.232 809.141,316.449 		"/>
		<polygon points="809.135,316.479 806.025,314.931 809.395,315.221 		"/>
		<polygon points="809.387,315.25 806.312,313.635 809.674,313.997 		"/>
		<polygon points="809.666,314.026 806.626,312.346 809.979,312.781 		"/>
		<polygon points="809.97,312.81 806.969,311.063 810.311,311.57 		"/>
		<polygon points="810.302,311.6 807.339,309.789 810.669,310.368 		"/>
		<polygon points="810.659,310.396 807.736,308.522 811.053,309.174 		"/>
		<polygon points="811.042,309.202 808.161,307.265 811.463,307.988 		"/>
		<polygon points="811.451,308.016 808.612,306.017 811.898,306.812 		"/>
		<polygon points="811.886,306.839 809.091,304.779 812.359,305.645 		"/>
		<polygon points="812.346,305.672 809.596,303.552 812.845,304.487 		"/>
		<polygon points="812.832,304.515 810.128,302.336 813.355,303.342 		"/>
		<polygon points="813.342,303.368 810.686,301.132 813.891,302.207 		"/>
		<polygon points="813.876,302.233 811.27,299.939 814.451,301.084 		"/>
		<polygon points="814.436,301.11 811.879,298.761 815.035,299.974 		"/>
		<polygon points="815.019,300 812.514,297.595 815.643,298.876 		"/>
		<polygon points="815.626,298.901 813.174,296.443 816.274,297.792 		"/>
		<polygon points="816.257,297.817 813.859,295.307 816.929,296.722 		"/>
		<polygon points="816.911,296.747 814.568,294.185 817.607,295.666 		"/>
		<polygon points="817.588,295.69 815.302,293.078 818.308,294.625 		"/>
		<polygon points="818.289,294.649 816.059,291.988 819.03,293.6 		"/>
		<polygon points="819.011,293.623 816.839,290.914 819.775,292.59 		"/>
		<polygon points="819.755,292.613 817.643,289.858 820.542,291.597 		"/>
		<polygon points="820.521,291.62 818.469,288.819 821.329,290.62 		"/>
		<polygon points="821.308,290.643 819.316,287.798 822.138,289.661 		"/>
		<polygon points="822.116,289.683 820.188,286.796 822.968,288.72 		"/>
		<polygon points="822.945,288.741 821.079,285.813 823.817,287.796 		"/>
		<polygon points="823.794,287.817 821.992,284.85 824.687,286.892 		"/>
		<polygon points="824.663,286.912 822.925,283.906 825.575,286.006 		"/>
		<polygon points="825.551,286.026 823.879,282.983 826.483,285.14 		"/>
		<polygon points="826.458,285.16 824.852,282.081 827.409,284.293 		"/>
		<polygon points="827.384,284.313 825.845,281.2 828.353,283.467 		"/>
		<polygon points="828.328,283.486 826.857,280.341 829.315,282.661 		"/>
		<polygon points="829.289,282.68 827.887,279.504 830.294,281.877 		"/>
		<polygon points="830.268,281.895 828.934,278.688 831.29,281.113 		"/>
		<polygon points="831.263,281.131 829.999,277.897 832.302,280.372 		"/>
		<polygon points="832.275,280.389 831.082,277.128 833.33,279.652 		"/>
		<polygon points="833.303,279.668 832.18,276.383 834.373,278.955 		"/>
		<polygon points="834.346,278.971 833.294,275.662 835.432,278.281 		"/>
		<polygon points="835.403,278.296 834.423,274.965 836.504,277.63 		"/>
		<polygon points="836.476,277.644 835.568,274.293 837.59,277.002 		"/>
		<polygon points="837.562,277.016 836.726,273.646 838.689,276.397 		"/>
		<polygon points="838.661,276.411 837.899,273.023 839.802,275.817 		"/>
		<polygon points="839.773,275.83 839.084,272.427 840.927,275.261 		"/>
		<polygon points="840.897,275.273 840.282,271.856 842.063,274.729 		"/>
		<polygon points="842.034,274.741 841.493,271.311 843.211,274.223 		"/>
		<polygon points="843.182,274.233 842.715,270.793 844.369,273.741 		"/>
		<polygon points="844.339,273.75 843.947,270.301 845.537,273.284 		"/>
		<polygon points="845.508,273.293 845.19,269.835 846.715,272.853 		"/>
		<polygon points="846.686,272.861 846.443,269.397 847.902,272.447 		"/>
		<polygon points="847.873,272.455 847.705,268.986 849.099,272.066 		"/>
		<polygon points="849.068,272.074 848.976,268.603 850.302,271.713 		"/>
		<polygon points="850.271,271.719 850.254,268.247 851.513,271.385 		"/>
		<polygon points="851.482,271.391 851.541,267.919 852.731,271.083 		"/>
		<polygon points="852.701,271.088 852.833,267.618 853.955,270.808 		"/>
		<polygon points="853.925,270.813 854.133,267.346 855.185,270.559 		"/>
		<polygon points="855.154,270.563 855.437,267.103 856.419,270.337 		"/>
		<polygon points="856.39,270.34 856.747,266.886 857.659,270.142 		"/>
		<polygon points="857.628,270.144 858.061,266.699 858.902,269.973 		"/>
		<polygon points="858.871,269.975 859.378,266.54 860.149,269.832 		"/>
		<polygon points="860.118,269.833 860.699,266.409 861.398,269.717 		"/>
		<polygon points="861.367,269.718 862.022,266.308 862.65,269.63 		"/>
		<polygon points="862.619,269.63 863.348,266.234 863.903,269.569 		"/>
		<polygon points="863.872,269.568 864.675,266.19 865.158,269.536 		"/>
		<polygon points="865.126,269.535 866.002,266.174 866.412,269.53 		"/>
		<polygon points="866.38,269.528 867.329,266.188 867.667,269.551 		"/>
		<polygon points="867.635,269.549 868.655,266.229 868.921,269.599 		"/>
		<polygon points="868.889,269.596 869.981,266.299 870.173,269.674 		"/>
		<polygon points="870.142,269.67 871.305,266.398 871.424,269.776 		"/>
		<polygon points="871.392,269.772 872.625,266.525 872.671,269.906 		"/>
		<polygon points="872.64,269.901 873.943,266.682 873.917,270.063 		"/>
		<polygon points="873.884,270.057 875.258,266.867 875.158,270.246 		"/>
		<polygon points="875.126,270.239 876.568,267.079 876.395,270.456 		"/>
		<polygon points="876.363,270.448 877.873,267.321 877.627,270.692 		"/>
		<polygon points="877.596,270.685 879.173,267.59 878.854,270.956 		"/>
		<polygon points="878.822,270.947 880.466,267.888 880.075,271.245 		"/>
		<polygon points="880.044,271.236 881.753,268.213 881.289,271.562 		"/>
		<polygon points="881.258,271.552 883.032,268.566 882.496,271.904 		"/>
		<polygon points="882.466,271.894 884.304,268.947 883.695,272.273 		"/>
		<polygon points="883.665,272.261 885.566,269.355 884.887,272.667 		"/>
		<polygon points="884.856,272.655 886.82,269.791 886.068,273.087 		"/>
		<polygon points="886.039,273.074 888.064,270.253 887.241,273.532 		"/>
		<polygon points="887.212,273.519 889.298,270.742 888.404,274.003 		"/>
		<polygon points="888.376,273.988 890.521,271.258 889.557,274.499 		"/>
		<polygon points="889.528,274.484 891.732,271.8 890.699,275.02 		"/>
		<polygon points="890.671,275.004 892.932,272.369 891.829,275.564 		"/>
		<polygon points="891.801,275.548 894.118,272.963 892.947,276.134 		"/>
		<polygon points="892.919,276.117 895.292,273.583 894.052,276.728 		"/>
		<polygon points="894.025,276.71 896.452,274.228 895.144,277.345 		"/>
		<polygon points="895.118,277.327 897.598,274.897 896.223,277.986 		"/>
		<polygon points="896.197,277.967 898.729,275.592 897.287,278.65 		"/>
		<polygon points="897.262,278.63 899.845,276.311 898.337,279.337 		"/>
		<polygon points="898.313,279.316 900.945,277.053 899.372,280.046 		"/>
		<polygon points="899.348,280.025 902.028,277.819 900.391,280.778 		"/>
		<polygon points="900.367,280.756 903.095,278.609 901.395,281.531 		"/>
		<polygon points="901.371,281.509 904.145,279.421 902.382,282.306 		"/>
		<polygon points="902.357,282.284 905.177,280.256 903.351,283.102 		"/>
		<polygon points="903.327,283.08 906.189,281.114 904.303,283.919 		"/>
		<polygon points="904.28,283.896 907.185,281.992 905.238,284.757 		"/>
		<polygon points="905.215,284.733 908.16,282.893 906.153,285.614 		"/>
		<polygon points="906.132,285.59 909.115,283.813 907.051,286.491 		"/>
		<polygon points="907.029,286.467 910.051,284.755 907.929,287.387 		"/>
		<polygon points="907.908,287.362 910.966,285.716 908.787,288.303 		"/>
		<polygon points="908.767,288.277 911.86,286.698 909.626,289.235 		"/>
		<polygon points="909.605,289.21 912.732,287.698 910.443,290.187 		"/>
		<polygon points="910.424,290.161 913.582,288.717 911.24,291.156 		"/>
		<polygon points="911.222,291.129 914.411,289.754 912.018,292.142 		"/>
		<polygon points="911.999,292.114 915.217,290.809 912.771,293.144 		"/>
		<polygon points="912.754,293.117 915.999,291.881 913.505,294.162 		"/>
		<polygon points="913.487,294.135 916.758,292.97 914.215,295.196 		"/>
		<polygon points="914.198,295.169 917.494,294.074 914.902,296.246 		"/>
		<polygon points="914.887,296.217 918.206,295.194 915.568,297.309 		"/>
		<polygon points="915.553,297.281 918.894,296.33 916.21,298.387 		"/>
		<polygon points="916.195,298.358 919.556,297.48 916.829,299.479 		"/>
		<polygon points="916.814,299.45 920.193,298.644 917.423,300.584 		"/>
		<polygon points="917.41,300.554 920.805,299.822 917.994,301.701 		"/>
		<polygon points="917.981,301.671 921.392,301.013 918.54,302.831 		"/>
		<polygon points="918.528,302.801 921.952,302.216 919.063,303.971 		"/>
		<polygon points="919.051,303.941 922.486,303.431 919.56,305.124 		"/>
		<polygon points="919.548,305.093 922.994,304.657 920.031,306.286 		"/>
		<polygon points="920.021,306.255 923.476,305.894 920.478,307.458 		"/>
		<polygon points="920.468,307.427 923.93,307.141 920.9,308.64 		"/>
		<polygon points="920.891,308.608 924.357,308.397 921.295,309.831 		"/>
		<polygon points="921.286,309.8 924.757,309.663 921.665,311.03 		"/>
		<polygon points="921.657,310.998 925.13,310.937 922.008,312.237 		"/>
		<polygon points="922.002,312.204 925.474,312.219 922.327,313.45 		"/>
		<polygon points="922.32,313.418 925.792,313.507 922.618,314.67 		"/>
		<polygon points="922.612,314.639 926.08,314.803 922.882,315.897 		"/>
		<polygon points="922.877,315.865 926.342,316.104 923.12,317.129 		"/>
		<polygon points="923.116,317.097 926.575,317.411 923.332,318.365 		"/>
		<polygon points="923.328,318.333 926.779,318.722 923.517,319.606 		"/>
		<polygon points="923.513,319.574 926.955,320.038 923.675,320.851 		"/>
		<polygon points="923.672,320.819 927.103,321.357 923.805,322.099 		"/>
		<polygon points="923.804,322.066 927.222,322.679 923.909,323.349 		"/>
		<polygon points="923.908,323.317 927.312,324.003 923.985,324.602 		"/>
		<polygon points="923.985,324.569 927.374,325.328 924.035,325.855 		"/>
		<polygon points="924.035,325.823 927.407,326.655 924.058,327.109 		"/>
		<polygon points="924.058,327.078 927.411,327.982 924.053,328.364 		"/>
		<polygon points="924.054,328.333 927.387,329.31 924.021,329.618 		"/>
		<polygon points="924.023,329.587 927.334,330.636 923.962,330.872 		"/>
		<polygon points="923.965,330.84 927.253,331.96 923.876,332.124 		"/>
		<polygon points="923.88,332.092 927.142,333.283 923.764,333.373 		"/>
		<polygon points="923.768,333.341 927.003,334.603 923.623,334.62 		"/>
		<polygon points="923.628,334.588 926.835,335.919 923.456,335.863 		"/>
		<polygon points="923.462,335.832 926.64,337.231 923.263,337.103 		"/>
		<polygon points="923.269,337.071 926.416,338.54 923.042,338.338 		"/>
		<polygon points="923.048,338.307 926.163,339.843 922.795,339.568 		"/>
		<polygon points="922.802,339.537 925.882,341.14 922.521,340.792 		"/>
		<polygon points="922.528,340.762 925.573,342.431 922.22,342.011 		"/>
		<polygon points="922.229,341.98 925.237,343.715 921.894,343.222 		"/>
		<polygon points="921.902,343.191 924.873,344.991 921.541,344.426 		"/>
		<polygon points="921.55,344.396 924.481,346.259 921.162,345.622 		"/>
		<polygon points="921.172,345.592 924.062,347.519 920.758,346.81 		"/>
		<polygon points="920.769,346.78 923.616,348.768 920.328,347.988 		"/>
		<polygon points="920.339,347.959 923.143,350.008 919.872,349.158 		"/>
		<polygon points="919.884,349.128 922.643,351.238 919.392,350.316 		"/>
		<polygon points="919.404,350.287 922.116,352.456 918.886,351.465 		"/>
		<polygon points="918.899,351.436 921.564,353.663 918.355,352.602 		"/>
		<polygon points="918.369,352.573 920.985,354.857 917.801,353.728 		"/>
		<polygon points="917.815,353.699 920.381,356.039 917.222,354.84 		"/>
		<polygon points="917.236,354.813 919.751,357.208 916.619,355.94 		"/>
		<polygon points="916.634,355.913 919.097,358.362 915.992,357.027 		"/>
		<polygon points="916.008,357 918.417,359.502 915.342,358.101 		"/>
		<polygon points="915.358,358.074 917.713,360.627 914.669,359.159 		"/>
		<polygon points="914.686,359.133 916.985,361.737 913.974,360.204 		"/>
		<polygon points="913.991,360.178 916.232,362.83 913.256,361.232 		"/>
		<polygon points="913.273,361.207 915.457,363.907 912.515,362.245 		"/>
		<polygon points="912.533,362.22 914.658,364.967 911.753,363.242 		"/>
		<polygon points="911.771,363.217 913.837,366.01 910.97,364.222 		"/>
		<polygon points="910.989,364.197 912.993,367.034 910.165,365.185 		"/>
		<polygon points="910.185,365.161 912.127,368.04 909.34,366.13 		"/>
		<polygon points="909.36,366.106 911.24,369.027 908.494,367.057 		"/>
		<polygon points="908.516,367.034 910.332,369.994 907.629,367.966 		"/>
		<polygon points="907.651,367.943 909.402,370.942 906.745,368.855 		"/>
		<polygon points="906.767,368.833 908.453,371.869 905.841,369.726 		"/>
		<polygon points="905.863,369.704 907.484,372.776 904.918,370.576 		"/>
		<polygon points="904.941,370.555 906.495,373.662 903.978,371.407 		"/>
		<polygon points="904.001,371.386 905.487,374.525 903.02,372.216 		"/>
		<polygon points="903.043,372.196 904.461,375.367 902.044,373.005 		"/>
		<polygon points="902.068,372.986 903.417,376.187 901.052,373.773 		"/>
		<polygon points="901.076,373.754 902.355,376.983 900.043,374.519 		"/>
		<polygon points="900.068,374.5 901.277,377.757 899.019,375.243 		"/>
		<polygon points="899.043,375.225 900.183,378.507 897.979,375.945 		"/>
		<polygon points="898.003,375.928 899.071,379.233 896.923,376.624 		"/>
		<polygon points="896.949,376.607 897.945,379.935 895.854,377.28 		"/>
		<polygon points="895.88,377.264 896.803,380.612 894.771,377.913 		"/>
		<polygon points="894.797,377.897 895.647,381.266 893.674,378.522 		"/>
		<polygon points="893.7,378.507 894.478,381.893 892.564,379.107 		"/>
		<polygon points="892.591,379.093 893.295,382.494 891.441,379.668 		"/>
		<polygon points="891.469,379.654 892.1,383.07 890.308,380.205 		"/>
		<polygon points="890.335,380.192 890.892,383.621 889.162,380.717 		"/>
		<polygon points="889.19,380.705 889.672,384.145 888.006,381.205 		"/>
		<polygon points="888.034,381.192 888.442,384.641 886.84,381.666 		"/>
		<polygon points="886.868,381.654 887.201,385.112 885.663,382.104 		"/>
		<polygon points="885.692,382.092 885.95,385.556 884.478,382.514 		"/>
		<polygon points="884.507,382.504 884.69,385.973 883.284,382.899 		"/>
		<polygon points="883.313,382.891 883.421,386.361 882.082,383.26 		"/>
		<polygon points="882.112,383.25 882.145,386.723 880.872,383.593 		"/>
		<polygon points="880.902,383.584 880.86,387.057 879.655,383.9 		"/>
		<polygon points="879.686,383.893 879.568,387.363 878.433,384.182 		"/>
		<polygon points="878.463,384.174 878.271,387.641 877.204,384.436 		"/>
		<polygon points="877.234,384.428 876.967,387.892 875.97,384.663 		"/>
		<polygon points="876.001,384.656 875.658,388.113 874.731,384.864 		"/>
	</g>
	<g>
		<g>
			<polygon points="797.317,341.656 799.679,343.799 796.72,343.429 			"/>
			<polygon points="797.051,342.522 799.299,344.792 796.363,344.26 			"/>
			<polygon points="796.741,343.373 798.869,345.761 795.965,345.069 			"/>
			<polygon points="796.388,344.205 798.391,346.707 795.525,345.856 			"/>
			<polygon points="795.992,345.016 797.863,347.624 795.046,346.618 			"/>
			<polygon points="795.556,345.805 797.29,348.512 794.528,347.353 			"/>
			<polygon points="795.079,346.568 796.671,349.366 793.974,348.059 			"/>
			<polygon points="794.563,347.305 796.01,350.186 793.383,348.732 			"/>
			<polygon points="794.011,348.012 795.307,350.968 792.759,349.373 			"/>
			<polygon points="793.423,348.688 794.565,351.711 792.103,349.978 			"/>
			<polygon points="792.801,349.331 793.786,352.412 791.416,350.547 			"/>
			<polygon points="792.146,349.938 792.972,353.069 790.701,351.077 			"/>
			<polygon points="791.462,350.51 792.125,353.681 789.96,351.567 			"/>
			<polygon points="790.749,351.043 791.248,354.246 789.195,352.017 			"/>
			<polygon points="790.01,351.536 790.343,354.762 788.407,352.423 			"/>
			<polygon points="789.246,351.987 789.413,355.228 787.601,352.786 			"/>
			<polygon points="788.46,352.397 788.461,355.642 786.776,353.104 			"/>
			<polygon points="787.655,352.763 787.488,356.003 785.936,353.377 			"/>
			<polygon points="786.831,353.084 786.498,356.311 785.083,353.604 			"/>
			<polygon points="785.992,353.36 785.494,356.563 784.221,353.783 			"/>
			<polygon points="785.141,353.589 784.478,356.761 783.349,353.915 			"/>
			<polygon points="784.278,353.771 783.453,356.902 782.473,353.999 			"/>
			<polygon points="783.407,353.907 782.423,356.988 781.593,354.035 			"/>
			<polygon points="782.531,353.994 781.389,357.017 780.713,354.022 			"/>
			<polygon points="781.651,354.033 780.355,356.989 779.834,353.961 			"/>
			<polygon points="780.771,354.023 779.325,356.905 778.96,353.853 			"/>
			<polygon points="779.893,353.966 778.3,356.764 778.093,353.696 			"/>
			<polygon points="779.019,353.861 777.284,356.567 777.234,353.493 			"/>
			<polygon points="778.15,353.708 776.279,356.315 776.388,353.243 			"/>
			<polygon points="777.292,353.507 775.29,356.009 775.556,352.946 			"/>
			<polygon points="776.445,353.26 774.316,355.648 774.74,352.605 			"/>
			<polygon points="775.611,352.967 773.363,355.235 773.943,352.22 			"/>
			<polygon points="774.795,352.628 772.433,354.771 773.167,351.791 			"/>
			<polygon points="773.996,352.246 771.527,354.256 772.414,351.32 			"/>
			<polygon points="773.219,351.82 770.65,353.692 771.686,350.809 			"/>
			<polygon points="772.464,351.353 769.803,353.081 770.985,350.259 			"/>
			<polygon points="771.734,350.844 768.988,352.425 770.314,349.671 			"/>
			<polygon points="771.032,350.296 768.208,351.725 769.674,349.047 			"/>
			<polygon points="770.359,349.711 767.465,350.982 769.067,348.389 			"/>
			<polygon points="769.717,349.089 766.762,350.201 768.495,347.699 			"/>
			<polygon points="769.107,348.434 766.1,349.382 767.959,346.979 			"/>
		</g>
		<g>
			<polygon points="805.556,318.167 808.638,319.417 808.207,320.168 805.192,319.167 			"/>
			<polygon points="805.151,319.332 808.233,320.583 807.802,321.333 804.787,320.333 			"/>
			<polygon points="804.746,320.498 807.828,321.749 807.396,322.499 804.382,321.499 			"/>
			<polygon points="804.34,321.664 807.422,322.915 806.991,323.665 803.977,322.665 			"/>
			<polygon points="803.935,322.829 807.017,324.08 806.586,324.831 803.571,323.83 			"/>
			<polygon points="803.53,323.995 806.611,325.246 806.181,325.996 803.166,324.996 			"/>
			<polygon points="803.124,325.161 806.206,326.412 805.775,327.162 802.761,326.162 			"/>
			<polygon points="802.719,326.326 805.801,327.577 805.37,328.328 802.355,327.327 			"/>
			<polygon points="802.313,327.492 805.396,328.743 804.965,329.493 801.95,328.493 			"/>
			<polygon points="801.908,328.658 804.99,329.909 804.56,330.659 801.545,329.659 			"/>
			<polygon points="801.503,329.823 804.585,331.074 804.154,331.825 801.14,330.824 			"/>
			<polygon points="801.098,330.989 804.18,332.24 803.749,332.99 800.734,331.99 			"/>
			<polygon points="800.692,332.155 803.774,333.406 803.344,334.156 800.329,333.156 			"/>
			<polygon points="800.287,333.321 803.369,334.571 802.938,335.322 799.924,334.321 			"/>
			<polygon points="799.882,334.486 802.964,335.737 802.533,336.487 799.518,335.487 			"/>
			<polygon points="799.477,335.652 802.559,336.903 802.128,337.653 799.113,336.653 			"/>
			<polygon points="799.071,336.818 802.153,338.068 801.723,338.819 798.708,337.818 			"/>
			<polygon points="798.666,337.983 801.748,339.234 801.317,339.984 798.302,338.984 			"/>
			<polygon points="798.261,339.149 801.343,340.4 800.912,341.15 797.897,340.15 			"/>
			<polygon points="797.855,340.315 800.938,341.566 800.506,342.316 797.492,341.315 			"/>
			<polygon points="797.45,341.48 800.532,342.731 800.101,343.482 797.086,342.481 			"/>
		</g>
	</g>
</g>
<path d="M768.23,350.495c0,0-71.407-63.864-81.267-63.366L563,287.515v-2.677h125.663c0,0,3.322,0.642,9.716,4.818
	c6.075,3.968,15.757,11.231,31.093,24.406c35.691,30.662,38.479,33.268,38.479,33.268L768.23,350.495z"/>
<polygon points="875.366,386.385 633.979,397.033 606.969,397.033 874.731,384.864 "/>
<g>
	<g>
		<path fill="#F9A715" d="M1007.496,427c0,2.75-2.25,5-5,5h-35.438c-2.75,0-5-2.25-5-5v-9.836c0-2.75,2.25-5,5-5h35.438
			c2.75,0,5,2.25,5,5V427z"/>
		<path fill="#F9A715" d="M1007.496,388.837c0,2.75-2.25,5-5,5h-35.438c-2.75,0-5-2.25-5-5v-9.836c0-2.75,2.25-5,5-5h35.438
			c2.75,0,5,2.25,5,5V388.837z"/>
	</g>
</g>
<g>
	<g>
		<path fill="#FFFFFF" d="M980.056,390.946v-11.314h-4.041v-2.304h10.822v2.304h-4.031v11.314H980.056z"/>
		<path fill="#FFFFFF" d="M996.851,388.521v2.425h-9.15c0.099-0.917,0.396-1.785,0.892-2.605c0.495-0.821,1.474-1.909,2.935-3.265
			c1.177-1.097,1.898-1.84,2.165-2.23c0.359-0.539,0.539-1.07,0.539-1.598c0-0.582-0.157-1.029-0.47-1.342
			c-0.313-0.313-0.744-0.47-1.296-0.47c-0.545,0-0.979,0.164-1.3,0.492c-0.322,0.329-0.508,0.874-0.558,1.636l-2.601-0.26
			c0.155-1.438,0.641-2.469,1.458-3.094c0.817-0.626,1.839-0.938,3.065-0.938c1.344,0,2.399,0.362,3.167,1.087
			s1.152,1.625,1.152,2.703c0,0.613-0.11,1.197-0.33,1.751c-0.22,0.554-0.568,1.135-1.045,1.741
			c-0.315,0.403-0.886,0.982-1.709,1.738c-0.824,0.755-1.346,1.257-1.565,1.504c-0.22,0.248-0.397,0.49-0.534,0.725H996.851z"/>
	</g>
	<g>
		<path fill="#FFFFFF" d="M978.419,429.348v-11.314h-4.041v-2.304h10.822v2.304h-4.032v11.314H978.419z"/>
		<path fill="#FFFFFF" d="M993.078,429.348h-2.61v-9.838c-0.954,0.893-2.078,1.552-3.372,1.979v-2.368
			c0.681-0.223,1.421-0.646,2.22-1.269c0.799-0.621,1.348-1.348,1.645-2.178h2.118V429.348z"/>
	</g>
</g>
<circle fill="#B3A9A2" stroke="#231F20" stroke-width="2" stroke-miterlimit="10" cx="1286.467" cy="560.889" r="2.864"/>
<polygon fill="#B3A9A2" stroke="#231F20" stroke-width="2" stroke-miterlimit="10" points="1293.461,548.922 1286.244,560.889 
	1279,548.922 "/>
<rect x="1268.25" y="405.604" fill="#917063" width="420.75" height="2.705"/>
<rect x="1268.25" y="402.899" fill="#4E4347" width="420.75" height="2.704"/>
<rect x="1268.25" y="400.195" fill="#917063" width="420.75" height="2.704"/>
<rect x="1268.25" y="397.49" fill="#4E4347" width="420.75" height="2.705"/>
<rect x="1268.25" y="394.785" fill="#917063" width="420.75" height="2.705"/>
<polygon fill="#BAB5B1" stroke="#231F20" stroke-width="2" stroke-miterlimit="10" points="1689,416.929 1286.379,416.929 
	1263.631,408.309 1689,408.309 "/>
<path d="M940.506,418.834c0,0-6.718-5.709-35.151-7.271s-249.68-2.695-342.354-0.723v3.124c0,0,178.313-3.875,350.837,0.045
	l4.942,0.37l3.114,0.433l2.168,0.394l3.08,0.699l2.325,0.641l2.09,0.654l1.81,0.632l2.168,0.847l2.045,0.876l1.62,0.762
	L940.506,418.834z"/>
<g>
	<circle fill="#A54A4F" stroke="#000000" stroke-width="2" stroke-miterlimit="10" cx="1135.172" cy="391.625" r="13.444"/>
	<circle fill="#A54A4F" stroke="#000000" stroke-width="2" stroke-miterlimit="10" cx="1229.583" cy="404.082" r="13.444"/>
	<circle fill="#A54A4F" stroke="#000000" stroke-width="2" stroke-miterlimit="10" cx="1136.64" cy="433.602" r="13.444"/>
	<circle fill="#A54A4F" stroke="#000000" stroke-width="2" stroke-miterlimit="10" cx="1231.803" cy="447.045" r="13.444"/>
	<g>
		<g>
			<circle fill="#A54A4F" stroke="#000000" stroke-width="2" stroke-miterlimit="10" cx="1505.033" cy="419.814" r="13.182"/>
			<circle fill="#A54A4F" stroke="#000000" stroke-width="2" stroke-miterlimit="10" cx="1503.085" cy="380.363" r="13.182"/>
		</g>
	</g>
	<circle fill="#A54A4F" stroke="#000000" stroke-width="2" stroke-miterlimit="10" cx="684.846" cy="299.902" r="12.641"/>
	<circle fill="#A54A4F" stroke="#000000" stroke-width="2" stroke-miterlimit="10" cx="781.313" cy="337.626" r="16.51"/>
	<circle fill="#A54A4F" stroke="#000000" stroke-width="2" stroke-miterlimit="10" cx="911.534" cy="477.25" r="63.286"/>
	<circle fill="#A54A4F" stroke="#000000" stroke-width="2" stroke-miterlimit="10" cx="830.235" cy="451.107" r="18.02"/>
	<circle fill="#A54A4F" stroke="#000000" stroke-width="2" stroke-miterlimit="10" cx="866.067" cy="327.521" r="57.98"/>
	<circle fill="#A54A4F" stroke="#000000" stroke-width="2" stroke-miterlimit="10" cx="724.149" cy="422.653" r="11.473"/>
</g>
</svg>
