<?xml version="1.0" encoding="utf-8"?>
<!-- Generator: Adobe Illustrator 16.0.0, SVG Export Plug-In . SVG Version: 6.00 Build 0)  -->
<!DOCTYPE svg PUBLIC "-//W3C//DTD SVG 1.1//EN" "http://www.w3.org/Graphics/SVG/1.1/DTD/svg11.dtd">
<svg version="1.1" id="Layer_1" xmlns="http://www.w3.org/2000/svg" xmlns:xlink="http://www.w3.org/1999/xlink" x="0px" y="0px"
	 width="1126px" height="381px" viewBox="0 0 1126 381" enable-background="new 0 0 1126 381" xml:space="preserve">
<rect fill="#E5E4E1" width="1126" height="381"/>
<path fill="#AFACA9" stroke="#231F20" stroke-width="2" stroke-miterlimit="10" d="M472.561,381V121.343
	c0,0-1.716-7.208,17.85-6.865c19.566,0.343,172.319,0,172.319,0s17.85-2.06,16.477,39.819l29.178,13.044l2.059,16.477l-30.894,2.06
	V381H472.561z"/>
<polygon fill="#8E8E8A" stroke="#231F20" stroke-width="2" stroke-miterlimit="10" points="607.436,201.572 652.202,200.446 
	647.135,214.242 651.639,222.266 "/>
<g>
	<circle fill="#565554" stroke="#000000" stroke-width="2" stroke-miterlimit="10" cx="526.229" cy="181.465" r="23.872"/>
	<circle fill="#565554" stroke="#000000" stroke-width="2" stroke-miterlimit="10" cx="526.813" cy="243.658" r="23.873"/>
</g>
<g>
	<polygon fill="#917063" points="544.005,211.356 671.457,228.036 670.326,241.5 542.052,222.266 	"/>
	<polygon fill="#4E4347" points="543.606,213.582 671.213,230.938 671.006,233.403 543.216,215.764 	"/>
	<polygon fill="#4E4347" points="542.85,217.809 670.791,235.955 670.592,238.337 542.496,219.785 	"/>
</g>
<g>
	<polygon fill="#917063" points="686.871,236.596 813.108,260.803 811.182,274.177 684.273,247.37 	"/>
	<polygon fill="#4E4347" points="686.34,238.795 812.693,263.685 812.34,266.135 685.82,240.948 	"/>
	<polygon fill="#4E4347" points="685.334,242.969 811.975,268.668 811.634,271.034 684.864,244.922 	"/>
</g>
<g>
	<polygon fill="#917063" points="707.426,274.172 835.963,273.876 836.62,287.371 706.93,285.244 	"/>
	<polygon fill="#4E4347" points="707.324,276.432 836.104,276.783 836.225,279.256 707.225,278.645 	"/>
	<polygon fill="#4E4347" points="707.132,280.721 836.35,281.813 836.465,284.2 707.043,282.728 	"/>
</g>
<g>
	<polygon fill="#917063" points="707.375,284.496 835.912,284.2 836.57,297.695 706.879,295.568 	"/>
	<polygon fill="#4E4347" points="707.273,286.756 836.055,287.107 836.174,289.58 707.174,288.969 	"/>
	<polygon fill="#4E4347" points="707.082,291.045 836.299,292.137 836.415,294.524 706.992,293.052 	"/>
</g>
<g>
	<polygon fill="#917063" points="707.324,294.82 835.862,294.524 836.52,308.02 706.828,305.893 	"/>
	<polygon fill="#4E4347" points="707.223,297.08 836.004,297.432 836.124,299.904 707.123,299.293 	"/>
	<polygon fill="#4E4347" points="707.031,301.369 836.248,302.461 836.365,304.849 706.941,303.376 	"/>
</g>
<g>
	<polygon fill="#917063" points="707.274,305.145 835.813,304.849 836.469,318.344 706.778,316.217 	"/>
	<polygon fill="#4E4347" points="707.173,307.404 835.953,307.756 836.074,310.229 707.073,309.617 	"/>
	<polygon fill="#4E4347" points="706.98,311.693 836.198,312.785 836.314,315.173 706.892,313.7 	"/>
</g>
<g>
	<polygon fill="#917063" points="707.225,315.469 835.762,315.173 836.419,328.668 706.729,326.541 	"/>
	<polygon fill="#4E4347" points="707.123,317.729 835.903,318.08 836.023,320.553 707.023,319.941 	"/>
	<polygon fill="#4E4347" points="706.931,322.018 836.148,323.109 836.264,325.497 706.842,324.024 	"/>
</g>
<g>
	<polygon fill="#917063" points="707.174,325.793 835.711,325.497 836.369,338.992 706.678,336.865 	"/>
	<polygon fill="#4E4347" points="707.072,328.053 835.854,328.404 835.973,330.877 706.973,330.266 	"/>
	<polygon fill="#4E4347" points="706.881,332.342 836.098,333.434 836.214,335.821 706.791,334.349 	"/>
</g>
<g>
	<polygon fill="#917063" points="707.123,336.117 835.661,335.821 836.318,349.316 706.627,347.189 	"/>
	<polygon fill="#4E4347" points="707.021,338.377 835.803,338.729 835.923,341.201 706.922,340.59 	"/>
	<polygon fill="#4E4347" points="706.83,342.666 836.047,343.758 836.164,346.146 706.74,344.673 	"/>
</g>
<line fill="none" stroke="#231F20" stroke-width="2" stroke-miterlimit="10" x1="572.172" y1="256.465" x2="666.583" y2="269.804"/>
<line fill="none" stroke="#231F20" stroke-width="2" stroke-miterlimit="10" x1="575.76" y1="229.825" x2="668.803" y2="243.102"/>
<polygon fill="#B3ABAC" stroke="#231F20" stroke-width="2" stroke-miterlimit="10" points="846.533,351.809 846.533,228.072 
	840.604,228.072 840.604,351.809 690.789,351.809 690.789,358.422 848.813,358.422 848.813,351.809 "/>
<path fill="#B3AEA8" stroke="#231F20" stroke-width="2" stroke-miterlimit="10" d="M834.165,369.096
	c0,5.895-4.78,10.67-10.675,10.67c-0.605,0-1.195-0.051-1.77-0.15c-5.051-0.84-8.9-5.23-8.9-10.52c0-5.365,3.959-9.811,9.115-10.561
	c0.51-0.075,1.024-0.115,1.555-0.115C829.385,358.42,834.165,363.2,834.165,369.096z"/>
<path fill="#8B8580" stroke="#231F20" stroke-width="2" stroke-miterlimit="10" d="M821.721,379.615
	c-0.511,0.08-1.021,0.15-1.546,0.15c-5.896,0-10.675-4.775-10.675-10.67c0-5.896,4.779-10.676,10.675-10.676
	c0.56,0,1.22,0.03,1.761,0.115c-5.156,0.75-9.115,5.195-9.115,10.561C812.82,374.385,816.67,378.775,821.721,379.615z"/>
<circle fill="none" stroke="#231F20" stroke-width="2" stroke-miterlimit="10" cx="823.232" cy="368.951" r="3.903"/>
<polygon fill="#B3A9A2" stroke="#231F20" stroke-width="2" stroke-miterlimit="10" points="830.707,358.42 822.631,368.332 
	813.547,358.422 "/>
<path fill="#86847D" stroke="#231F20" stroke-width="2" stroke-miterlimit="10" d="M724.846,380.04
	c-1.046,0.34-2.166,0.521-3.326,0.521c-5.984,0-10.834-4.851-10.834-10.836c0-5.984,4.85-10.834,10.834-10.834
	c0.365,0,0.726,0.02,1.08,0.055c-4.354,1.404-7.5,5.494-7.5,10.314C715.1,374.875,719.37,379.49,724.846,380.04z"/>
<path fill="#B0ADA7" stroke="#231F20" stroke-width="2" stroke-miterlimit="10" d="M732.355,369.725c0,4.825-3.15,8.91-7.51,10.315
	c-5.476-0.55-9.746-5.165-9.746-10.78c0-4.82,3.146-8.91,7.5-10.314C728.08,359.484,732.355,364.105,732.355,369.725z"/>
<rect x="936.302" y="376.493" fill="none" stroke="#231F20" stroke-width="2" stroke-miterlimit="10" width="51.29" height="4.507"/>
<polyline fill="#B1ABA6" stroke="#231F20" stroke-width="2" stroke-miterlimit="10" points="947.334,376.493 947.334,108.5 
	977,108.5 977,376.493 "/>
<g>
	<g>
		<polygon fill="#B1ABA6" stroke="#231F20" stroke-width="2" stroke-miterlimit="10" points="947.334,117.5 925.666,124.833 
			938.334,145.167 947.334,134.167 		"/>
		<path fill="#B1ABA6" stroke="#231F20" stroke-width="2" stroke-miterlimit="10" d="M925.666,124.833l-28.332,52
			c0,0-7.667-2.333-15-9.333l4.332,11.667c0,0,35,12.999,39,12.999s6.668-1.666,6.668-1.666l6-13l-17-8l17-24.333L925.666,124.833z"
			/>
	</g>
</g>
<path fill="#ACA9A2" stroke="#000000" stroke-width="2" stroke-miterlimit="10" d="M407.538,381v-29.488l-11.323-22.066H242.042
	c0,0-8.13-1.742-8.71-10.742s0-35.131,0-35.131h-54.004V381H407.538z"/>
<polygon fill="#ABA99F" stroke="#000000" stroke-width="2" stroke-miterlimit="10" points="0,233.342 0,295.476 179.328,295.476 
	179.328,233.342 179.328,232.153 0,232.153 "/>
<g>
	<rect y="215.68" fill="#917063" width="525.639" height="2.129"/>
	<rect y="213.551" fill="#4E4347" width="525.639" height="2.129"/>
	<rect y="211.422" fill="#917063" width="525.639" height="2.129"/>
	<rect y="209.293" fill="#4E4347" width="525.639" height="2.129"/>
	<rect y="207.164" fill="#917063" width="525.639" height="2.129"/>
</g>
<polygon fill="#AAA7A3" stroke="#000000" stroke-width="2" stroke-miterlimit="10" points="449.113,217.809 449.113,231.582 
	484.069,231.582 495.916,217.809 "/>
<rect y="165.78" fill="#ADA8A5" stroke="#000000" stroke-width="2" stroke-miterlimit="10" width="135.263" height="21.613"/>
<polygon fill="#ADA8A5" stroke="#000000" stroke-width="2" stroke-miterlimit="10" points="135.263,187.393 168.318,187.393 
	168.318,128.487 308.333,128.487 308.333,87.833 108.333,87.833 108.333,143.833 135.263,143.833 "/>
<g>
	<g>
		<polygon points="376.199,229.816 378.706,226.973 377.453,230.443 		"/>
		<polygon points="377.424,230.428 379.992,227.639 378.664,231.082 		"/>
		<polygon points="378.636,231.066 381.264,228.334 379.861,231.747 		"/>
		<polygon points="379.833,231.73 382.52,229.055 381.044,232.438 		"/>
		<polygon points="381.016,232.42 383.76,229.804 382.211,233.153 		"/>
		<polygon points="382.184,233.135 384.983,230.579 383.363,233.895 		"/>
		<polygon points="383.336,233.876 386.19,231.381 384.498,234.66 		"/>
		<polygon points="384.472,234.641 387.379,232.209 385.617,235.45 		"/>
		<polygon points="385.591,235.431 388.55,233.062 386.718,236.265 		"/>
		<polygon points="386.692,236.244 389.702,233.939 387.801,237.103 		"/>
		<polygon points="387.776,237.082 390.835,234.843 388.866,237.964 		"/>
		<polygon points="388.841,237.941 391.948,235.77 389.912,238.848 		"/>
		<polygon points="389.888,238.825 393.041,236.721 390.938,239.754 		"/>
		<polygon points="390.915,239.73 394.112,237.695 391.945,240.682 		"/>
		<polygon points="391.922,240.658 395.163,238.693 392.932,241.632 		"/>
		<polygon points="392.909,241.607 396.192,239.713 393.897,242.604 		"/>
		<polygon points="393.875,242.578 397.198,240.756 394.842,243.595 		"/>
		<polygon points="394.82,243.57 398.182,241.818 395.765,244.606 		"/>
		<polygon points="395.744,244.581 399.143,242.903 396.665,245.639 		"/>
		<polygon points="396.645,245.612 400.079,244.008 397.543,246.689 		"/>
		<polygon points="397.523,246.662 400.992,245.133 398.398,247.759 		"/>
		<polygon points="398.379,247.732 401.88,246.277 399.23,248.847 		"/>
		<polygon points="399.212,248.819 402.743,247.441 400.039,249.952 		"/>
		<polygon points="400.021,249.924 403.58,248.623 400.822,251.075 		"/>
		<polygon points="400.806,251.047 404.393,249.823 401.582,252.215 		"/>
		<polygon points="401.565,252.186 405.178,251.041 402.316,253.371 		"/>
		<polygon points="402.301,253.342 405.938,252.274 403.026,254.542 		"/>
		<polygon points="403.011,254.512 406.67,253.524 403.71,255.729 		"/>
		<polygon points="403.696,255.698 407.375,254.79 404.368,256.93 		"/>
		<polygon points="404.354,256.898 408.053,256.07 405,258.145 		"/>
		<polygon points="404.987,258.113 408.703,257.365 405.606,259.372 		"/>
		<polygon points="405.594,259.342 409.324,258.674 406.185,260.613 		"/>
		<polygon points="406.173,260.582 409.917,259.996 406.737,261.867 		"/>
		<polygon points="406.726,261.835 410.482,261.33 407.262,263.132 		"/>
		<polygon points="407.251,263.1 411.018,262.676 407.759,264.408 		"/>
		<polygon points="407.749,264.375 411.523,264.033 408.229,265.694 		"/>
		<polygon points="408.22,265.662 412,265.401 408.67,266.99 		"/>
		<polygon points="408.662,266.957 412.447,266.779 409.083,268.297 		"/>
		<polygon points="409.076,268.263 412.864,268.166 409.469,269.611 		"/>
		<polygon points="409.461,269.576 413.251,269.563 409.825,270.934 		"/>
		<polygon points="409.818,270.898 413.608,270.967 410.153,272.263 		"/>
		<polygon points="410.147,272.229 413.934,272.379 410.452,273.6 		"/>
		<polygon points="410.447,273.564 414.229,273.797 410.722,274.941 		"/>
		<polygon points="410.718,274.907 414.495,275.221 410.963,276.29 		"/>
		<polygon points="410.959,276.256 414.729,276.65 411.175,277.643 		"/>
		<polygon points="411.172,277.608 414.932,278.085 411.357,279 		"/>
		<polygon points="411.355,278.966 415.104,279.523 411.51,280.361 		"/>
		<polygon points="411.509,280.326 415.244,280.965 411.634,281.725 		"/>
		<polygon points="411.633,281.69 415.354,282.41 411.728,283.092 		"/>
		<polygon points="411.728,283.057 415.433,283.856 411.792,284.459 		"/>
		<polygon points="411.793,284.425 415.479,285.305 411.827,285.828 		"/>
		<polygon points="411.828,285.794 415.495,286.753 411.832,287.198 		"/>
		<polygon points="411.834,287.164 415.479,288.201 411.808,288.567 		"/>
		<polygon points="411.811,288.533 415.432,289.649 411.753,289.936 		"/>
		<polygon points="411.757,289.901 415.354,291.096 411.669,291.303 		"/>
		<polygon points="411.674,291.269 415.244,292.541 411.556,292.667 		"/>
		<polygon points="411.562,292.633 415.104,293.982 411.413,294.029 		"/>
		<polygon points="411.419,293.996 414.931,295.421 411.241,295.387 		"/>
		<polygon points="411.248,295.354 414.728,296.855 411.04,296.742 		"/>
		<polygon points="411.047,296.709 414.494,298.285 410.809,298.092 		"/>
		<polygon points="410.817,298.059 414.229,299.709 410.549,299.437 		"/>
		<polygon points="410.558,299.404 413.934,301.127 410.26,300.775 		"/>
		<polygon points="410.27,300.742 413.607,302.539 409.942,302.107 		"/>
		<polygon points="409.952,302.075 413.25,303.943 409.596,303.432 		"/>
		<polygon points="409.606,303.4 412.863,305.34 409.22,304.749 		"/>
		<polygon points="409.232,304.718 412.446,306.727 408.816,306.058 		"/>
		<polygon points="408.829,306.027 411.999,308.104 408.385,307.357 		"/>
		<polygon points="408.398,307.326 411.522,309.473 407.925,308.647 		"/>
		<polygon points="407.938,308.617 411.016,310.83 407.438,309.928 		"/>
		<polygon points="407.452,309.896 410.48,312.176 406.922,311.196 		"/>
		<polygon points="406.938,311.166 409.916,313.51 406.38,312.453 		"/>
		<polygon points="406.396,312.424 409.322,314.832 405.811,313.699 		"/>
		<polygon points="405.827,313.669 408.7,316.141 405.214,314.932 		"/>
		<polygon points="405.231,314.902 408.051,317.436 404.591,316.152 		"/>
		<polygon points="404.608,316.121 407.373,318.716 403.941,317.357 		"/>
		<polygon points="403.96,317.328 406.667,319.981 403.267,318.549 		"/>
		<polygon points="403.286,318.52 405.935,321.231 402.566,319.727 		"/>
		<polygon points="402.585,319.697 405.176,322.465 401.84,320.887 		"/>
		<polygon points="401.86,320.858 404.39,323.682 401.089,322.032 		"/>
		<polygon points="401.11,322.004 403.578,324.882 400.313,323.161 		"/>
		<polygon points="400.335,323.133 402.74,326.063 399.514,324.273 		"/>
		<polygon points="399.536,324.245 401.877,327.227 398.689,325.367 		"/>
		<polygon points="398.713,325.34 400.988,328.371 397.843,326.443 		"/>
		<polygon points="397.866,326.416 400.076,329.496 396.973,327.501 		"/>
		<polygon points="396.996,327.475 399.139,330.602 396.08,328.539 		"/>
		<polygon points="396.104,328.514 398.179,331.686 395.164,329.559 		"/>
		<polygon points="395.189,329.533 397.195,332.75 394.228,330.557 		"/>
		<polygon points="394.253,330.533 396.188,333.791 393.269,331.535 		"/>
		<polygon points="393.295,331.512 395.16,334.812 392.29,332.492 		"/>
		<polygon points="392.316,332.47 394.109,335.809 391.29,333.428 		"/>
		<polygon points="391.317,333.406 393.037,336.783 390.27,334.342 		"/>
		<polygon points="390.298,334.32 391.944,337.734 389.23,335.234 		"/>
		<polygon points="389.259,335.213 390.831,338.662 388.172,336.104 		"/>
		<polygon points="388.201,336.083 389.698,339.564 387.096,336.949 		"/>
		<polygon points="387.125,336.93 388.546,340.443 386,337.771 		"/>
		<polygon points="386.03,337.753 387.375,341.296 384.888,338.57 		"/>
		<polygon points="384.918,338.553 386.187,342.123 383.758,339.345 		"/>
		<polygon points="383.789,339.327 384.979,342.926 382.612,340.094 		"/>
		<polygon points="382.644,340.078 383.756,343.701 381.45,340.818 		"/>
		<polygon points="381.481,340.803 382.516,344.449 380.272,341.518 		"/>
		<polygon points="380.305,341.504 381.259,345.171 379.081,342.191 		"/>
		<polygon points="379.113,342.178 379.988,345.865 377.874,342.84 		"/>
		<polygon points="377.906,342.826 378.702,346.531 376.654,343.461 		"/>
		<polygon points="376.687,343.448 377.401,347.17 375.42,344.057 		"/>
		<polygon points="375.453,344.044 376.087,347.781 374.174,344.625 		"/>
		<polygon points="374.208,344.613 374.761,348.363 372.916,345.166 		"/>
		<polygon points="372.95,345.154 373.422,348.916 371.646,345.68 		"/>
		<polygon points="371.681,345.67 372.071,349.439 370.366,346.166 		"/>
		<polygon points="370.4,346.156 370.709,349.934 369.076,346.625 		"/>
		<polygon points="369.11,346.615 369.337,350.398 367.776,347.055 		"/>
		<polygon points="367.811,347.047 367.956,350.834 366.467,347.457 		"/>
		<polygon points="366.501,347.449 366.564,351.239 365.149,347.83 		"/>
		<polygon points="365.184,347.824 365.165,351.614 363.824,348.176 		"/>
		<polygon points="363.859,348.17 363.758,351.959 362.492,348.492 		"/>
		<polygon points="362.526,348.486 362.344,352.273 361.153,348.779 		"/>
		<polygon points="361.188,348.775 360.923,352.557 359.808,349.038 		"/>
		<polygon points="359.843,349.034 359.497,352.809 358.458,349.268 		"/>
		<polygon points="358.493,349.264 358.065,353.03 357.103,349.468 		"/>
		<polygon points="357.138,349.465 356.629,353.221 355.744,349.639 		"/>
		<polygon points="355.779,349.637 355.189,353.381 354.382,349.779 		"/>
		<polygon points="354.417,349.778 353.746,353.51 353.017,349.892 		"/>
		<polygon points="353.053,349.891 352.3,353.606 351.65,349.974 		"/>
		<polygon points="351.686,349.974 350.853,353.672 350.282,350.026 		"/>
		<polygon points="350.317,350.027 349.405,353.707 348.912,350.049 		"/>
		<polygon points="348.948,350.051 347.956,353.71 347.543,350.043 		"/>
		<polygon points="347.578,350.045 346.508,353.682 346.174,350.006 		"/>
		<polygon points="346.209,350.01 345.06,353.622 344.806,349.94 		"/>
		<polygon points="344.841,349.944 343.614,353.531 343.44,349.846 		"/>
		<polygon points="343.475,349.85 342.171,353.409 342.076,349.721 		"/>
		<polygon points="342.111,349.726 340.73,353.256 340.715,349.566 		"/>
		<polygon points="340.75,349.572 339.293,353.071 339.358,349.382 		"/>
		<polygon points="339.394,349.389 337.86,352.855 338.005,349.168 		"/>
		<polygon points="338.04,349.176 336.433,352.609 336.657,348.926 		"/>
		<polygon points="336.692,348.935 335.011,352.332 335.315,348.654 		"/>
		<polygon points="335.35,348.664 333.596,352.023 333.979,348.354 		"/>
		<polygon points="334.013,348.364 332.187,351.686 332.649,348.025 		"/>
		<polygon points="332.684,348.035 330.786,351.316 331.328,347.668 		"/>
		<polygon points="331.361,347.678 329.394,350.918 330.014,347.281 		"/>
		<polygon points="330.048,347.293 328.01,350.488 328.709,346.865 		"/>
		<polygon points="328.742,346.879 326.636,350.029 327.413,346.423 		"/>
		<polygon points="327.446,346.436 325.271,349.541 326.127,345.952 		"/>
		<polygon points="326.16,345.966 323.919,349.023 324.852,345.453 		"/>
		<polygon points="324.884,345.468 322.577,348.477 323.587,344.928 		"/>
		<polygon points="323.619,344.942 321.248,347.9 322.335,344.375 		"/>
		<polygon points="322.366,344.39 319.932,347.295 321.094,343.795 		"/>
		<polygon points="321.125,343.811 318.628,346.662 319.867,343.188 		"/>
		<polygon points="319.897,343.203 317.339,346.002 318.652,342.555 		"/>
		<polygon points="318.683,342.57 316.065,345.313 317.452,341.895 		"/>
		<polygon points="317.482,341.912 314.806,344.597 316.267,341.209 		"/>
		<polygon points="316.296,341.228 313.563,343.854 315.096,340.498 		"/>
		<polygon points="315.125,340.518 312.335,343.084 313.941,339.762 		"/>
		<polygon points="313.97,339.782 311.125,342.287 312.802,339.002 		"/>
		<polygon points="312.831,339.021 309.933,341.465 311.68,338.217 		"/>
		<polygon points="311.708,338.237 308.758,340.617 310.575,337.407 		"/>
		<polygon points="310.603,337.429 307.602,339.744 309.488,336.574 		"/>
		<polygon points="309.516,336.596 306.465,338.846 308.42,335.718 		"/>
		<polygon points="308.446,335.74 305.348,337.924 307.37,334.838 		"/>
		<polygon points="307.396,334.861 304.251,336.978 306.339,333.937 		"/>
		<polygon points="306.364,333.96 303.175,336.008 305.328,333.013 		"/>
		<polygon points="305.353,333.037 302.12,335.016 304.337,332.067 		"/>
		<polygon points="304.362,332.092 301.086,334 303.367,331.101 		"/>
		<polygon points="303.392,331.125 300.075,332.962 302.418,330.113 		"/>
		<polygon points="302.442,330.139 299.087,331.902 301.491,329.105 		"/>
		<polygon points="301.514,329.131 298.122,330.822 300.586,328.078 		"/>
		<polygon points="300.608,328.104 297.18,329.722 299.703,327.031 		"/>
		<polygon points="299.725,327.058 296.263,328.601 298.843,325.965 		"/>
		<polygon points="298.864,325.992 295.369,327.46 298.006,324.881 		"/>
		<polygon points="298.027,324.908 294.501,326.301 297.193,323.779 		"/>
		<polygon points="297.213,323.807 293.658,325.122 296.404,322.66 		"/>
		<polygon points="296.424,322.688 292.841,323.926 295.64,321.523 		"/>
		<polygon points="295.658,321.553 292.05,322.713 294.899,320.371 		"/>
		<polygon points="294.918,320.4 291.285,321.482 294.185,319.203 		"/>
		<polygon points="294.203,319.232 290.547,320.235 293.495,318.02 		"/>
		<polygon points="293.513,318.049 289.836,318.973 292.832,316.822 		"/>
		<polygon points="292.849,316.852 289.152,317.695 292.194,315.609 		"/>
		<polygon points="292.21,315.64 288.497,316.404 291.583,314.385 		"/>
		<polygon points="291.599,314.414 287.87,315.098 290.999,313.146 		"/>
		<polygon points="291.013,313.176 287.271,313.779 290.441,311.895 		"/>
		<polygon points="290.455,311.926 286.7,312.447 289.911,310.633 		"/>
		<polygon points="289.924,310.664 286.159,311.104 289.408,309.358 		"/>
		<polygon points="289.42,309.391 285.646,309.749 288.933,308.074 		"/>
		<polygon points="288.944,308.105 285.164,308.383 288.485,306.779 		"/>
		<polygon points="288.497,306.813 284.71,307.008 288.066,305.477 		"/>
		<polygon points="288.077,305.508 284.287,305.622 287.675,304.164 		"/>
		<polygon points="287.685,304.195 283.894,304.228 287.313,302.843 		"/>
		<polygon points="287.322,302.875 283.531,302.825 286.979,301.515 		"/>
		<polygon points="286.987,301.547 283.198,301.415 286.674,300.18 		"/>
		<polygon points="286.682,300.213 282.896,299.998 286.398,298.838 		"/>
		<polygon points="286.405,298.871 282.625,298.575 286.151,297.491 		"/>
		<polygon points="286.157,297.524 282.385,297.146 285.933,296.139 		"/>
		<polygon points="285.938,296.172 282.175,295.713 285.745,294.783 		"/>
		<polygon points="285.75,294.816 281.997,294.275 285.585,293.422 		"/>
		<polygon points="285.59,293.455 281.85,292.834 285.456,292.059 		"/>
		<polygon points="285.459,292.092 281.733,291.391 285.355,290.693 		"/>
		<polygon points="285.358,290.727 281.648,289.943 285.285,289.326 		"/>
		<polygon points="285.287,289.359 281.595,288.496 285.244,287.957 		"/>
		<polygon points="285.245,287.99 281.573,287.047 285.233,286.588 		"/>
		<polygon points="285.233,286.621 281.582,285.599 285.251,285.218 		"/>
		<polygon points="285.251,285.252 281.623,284.15 285.299,283.85 		"/>
		<polygon points="285.298,283.883 281.695,282.703 285.377,282.482 		"/>
		<polygon points="285.375,282.516 281.798,281.259 285.484,281.117 		"/>
		<polygon points="285.481,281.15 281.933,279.816 285.621,279.754 		"/>
		<polygon points="285.617,279.787 282.098,278.377 285.787,278.395 		"/>
		<polygon points="285.783,278.428 282.295,276.942 285.982,277.039 		"/>
		<polygon points="285.978,277.072 282.522,275.512 286.207,275.688 		"/>
		<polygon points="286.201,275.722 282.781,274.086 286.461,274.342 		"/>
		<polygon points="286.455,274.376 283.07,272.667 286.744,273.002 		"/>
		<polygon points="286.737,273.035 283.391,271.254 287.056,271.669 		"/>
		<polygon points="287.048,271.702 283.741,269.848 287.396,270.342 		"/>
		<polygon points="287.388,270.375 284.122,268.45 287.766,269.023 		"/>
		<polygon points="287.757,269.057 284.533,267.061 288.163,267.713 		"/>
		<polygon points="288.153,267.746 284.974,265.682 288.589,266.411 		"/>
	</g>
	<g>
		<g>
			<polygon points="284.281,266.459 287.707,266.714 284.72,264.98 			"/>
			<polygon points="284.613,265.385 288.048,265.426 284.958,263.881 			"/>
			<polygon points="284.877,264.293 288.308,264.119 285.128,262.77 			"/>
			<polygon points="285.073,263.186 288.486,262.798 285.229,261.65 			"/>
			<polygon points="285.199,262.068 288.581,261.469 285.258,260.526 			"/>
			<polygon points="285.255,260.945 288.593,260.137 285.218,259.402 			"/>
			<polygon points="285.241,259.821 288.522,258.806 285.108,258.284 			"/>
			<polygon points="285.157,258.7 288.369,257.482 284.929,257.174 			"/>
			<polygon points="285.003,257.586 288.133,256.17 284.681,256.078 			"/>
			<polygon points="284.78,256.484 287.815,254.876 284.364,254.998 			"/>
			<polygon points="284.489,255.398 287.418,253.604 283.981,253.941 			"/>
			<polygon points="284.131,254.333 286.942,252.359 283.533,252.91 			"/>
		</g>
		<polygon points="283.707,253.292 286.39,251.146 283.021,251.909 		"/>
		<polygon points="283.219,252.279 285.763,249.971 282.448,250.941 		"/>
		<polygon points="282.668,251.299 285.064,248.836 281.816,250.012 		"/>
		<polygon points="282.058,250.354 284.295,247.748 281.127,249.123 		"/>
		<polygon points="281.39,249.45 283.46,246.709 280.384,248.279 		"/>
		<polygon points="280.667,248.59 282.563,245.725 279.59,247.484 		"/>
		<polygon points="279.892,247.775 281.604,244.798 278.748,246.739 		"/>
		<polygon points="279.066,247.012 280.591,243.933 277.861,246.049 		"/>
		<polygon points="278.196,246.3 279.525,243.133 276.933,245.414 		"/>
		<polygon points="277.283,245.645 278.412,242.4 275.967,244.839 		"/>
		<polygon points="276.33,245.047 277.255,241.738 274.967,244.325 		"/>
		<polygon points="275.343,244.51 276.06,241.15 273.937,243.875 		"/>
		<polygon points="274.323,244.036 274.829,240.639 272.88,243.49 		"/>
		<polygon points="273.276,243.627 273.569,240.203 271.802,243.171 		"/>
		<polygon points="272.206,243.283 272.285,239.848 270.706,242.92 		"/>
		<polygon points="271.116,243.006 270.981,239.574 269.597,242.738 		"/>
		<polygon points="270.011,242.799 269.662,239.381 268.479,242.625 		"/>
		<polygon points="268.896,242.66 268.334,239.271 267.354,242.583 		"/>
		<polygon points="267.773,242.592 267.002,239.244 266.23,242.611 		"/>
		<polygon points="266.649,242.593 265.67,239.301 265.11,242.709 		"/>
		<polygon points="265.527,242.664 264.345,239.439 263.999,242.876 		"/>
	</g>
</g>
<path d="M263.999,242.876c0,0-170.559,24.046-263.999,45.782v-2.739c98.75-23.261,264.345-46.479,264.345-46.479L263.999,242.876z"
	/>
<rect x="37.876" y="187.393" fill="#ADA8A5" stroke="#000000" stroke-width="2" stroke-miterlimit="10" width="15.462" height="6.309"/>
<path fill="none" stroke="#000000" stroke-width="2" stroke-miterlimit="10" d="M53.338,193.702l20.773,9.165
	c0,0,7.613,3.4,12.797-1.539"/>
<path fill="none" stroke="#000000" stroke-width="2" stroke-miterlimit="10" d="M37.908,193.702l-20.773,9.165
	c0,0-7.613,3.4-12.797-1.539"/>
<g>
	<g>
		<polygon points="245.539,129.694 242.335,128.352 245.715,128.422 		"/>
		<polygon points="245.71,128.452 242.537,127.04 245.915,127.184 		"/>
		<polygon points="245.909,127.213 242.768,125.732 246.141,125.949 		"/>
		<polygon points="246.135,125.979 243.025,124.431 246.395,124.721 		"/>
		<polygon points="246.387,124.75 243.312,123.135 246.674,123.497 		"/>
		<polygon points="246.666,123.526 243.626,121.846 246.979,122.281 		"/>
		<polygon points="246.97,122.31 243.969,120.563 247.311,121.07 		"/>
		<polygon points="247.302,121.1 244.339,119.289 247.669,119.868 		"/>
		<polygon points="247.659,119.896 244.736,118.022 248.053,118.674 		"/>
		<polygon points="248.042,118.702 245.161,116.765 248.463,117.488 		"/>
		<polygon points="248.451,117.516 245.612,115.517 248.898,116.312 		"/>
		<polygon points="248.886,116.339 246.091,114.279 249.359,115.145 		"/>
		<polygon points="249.346,115.172 246.596,113.052 249.845,113.987 		"/>
		<polygon points="249.832,114.015 247.128,111.836 250.355,112.842 		"/>
		<polygon points="250.342,112.868 247.686,110.632 250.891,111.707 		"/>
		<polygon points="250.876,111.733 248.27,109.439 251.451,110.584 		"/>
		<polygon points="251.436,110.61 248.879,108.261 252.035,109.474 		"/>
		<polygon points="252.019,109.5 249.514,107.095 252.643,108.376 		"/>
		<polygon points="252.626,108.401 250.174,105.943 253.274,107.292 		"/>
		<polygon points="253.257,107.317 250.859,104.807 253.929,106.222 		"/>
		<polygon points="253.911,106.247 251.568,103.685 254.607,105.166 		"/>
		<polygon points="254.588,105.19 252.302,102.578 255.308,104.125 		"/>
		<polygon points="255.289,104.149 253.059,101.488 256.03,103.1 		"/>
		<polygon points="256.011,103.123 253.839,100.414 256.775,102.09 		"/>
		<polygon points="256.755,102.113 254.643,99.358 257.542,101.097 		"/>
		<polygon points="257.521,101.12 255.469,98.319 258.329,100.12 		"/>
		<polygon points="258.308,100.143 256.316,97.298 259.138,99.161 		"/>
		<polygon points="259.116,99.183 257.188,96.296 259.968,98.22 		"/>
		<polygon points="259.945,98.241 258.079,95.313 260.817,97.296 		"/>
		<polygon points="260.794,97.317 258.992,94.35 261.687,96.392 		"/>
		<polygon points="261.663,96.412 259.925,93.406 262.575,95.506 		"/>
		<polygon points="262.551,95.526 260.879,92.483 263.483,94.64 		"/>
		<polygon points="263.458,94.66 261.852,91.581 264.409,93.793 		"/>
		<polygon points="264.384,93.813 262.845,90.7 265.353,92.967 		"/>
		<polygon points="265.328,92.986 263.857,89.841 266.315,92.161 		"/>
		<polygon points="266.289,92.18 264.887,89.004 267.294,91.377 		"/>
		<polygon points="267.268,91.395 265.934,88.188 268.29,90.613 		"/>
		<polygon points="268.263,90.631 266.999,87.397 269.302,89.872 		"/>
		<polygon points="269.275,89.889 268.082,86.628 270.33,89.152 		"/>
		<polygon points="270.303,89.168 269.18,85.883 271.373,88.455 		"/>
		<polygon points="271.346,88.471 270.294,85.162 272.432,87.781 		"/>
		<polygon points="272.403,87.796 271.423,84.465 273.504,87.13 		"/>
		<polygon points="273.476,87.144 272.568,83.793 274.59,86.502 		"/>
		<polygon points="274.562,86.516 273.726,83.146 275.689,85.897 		"/>
		<polygon points="275.661,85.911 274.899,82.523 276.802,85.317 		"/>
		<polygon points="276.773,85.33 276.084,81.927 277.927,84.761 		"/>
		<polygon points="277.897,84.773 277.282,81.356 279.063,84.229 		"/>
		<polygon points="279.034,84.241 278.493,80.811 280.211,83.723 		"/>
		<polygon points="280.182,83.733 279.715,80.293 281.369,83.241 		"/>
		<polygon points="281.339,83.25 280.947,79.801 282.537,82.784 		"/>
		<polygon points="282.508,82.793 282.19,79.335 283.715,82.353 		"/>
		<polygon points="283.686,82.361 283.443,78.897 284.902,81.947 		"/>
		<polygon points="284.873,81.955 284.705,78.486 286.099,81.566 		"/>
		<polygon points="286.068,81.574 285.976,78.103 287.302,81.213 		"/>
		<polygon points="287.271,81.219 287.254,77.747 288.513,80.885 		"/>
		<polygon points="288.482,80.891 288.541,77.419 289.731,80.583 		"/>
		<polygon points="289.701,80.588 289.833,77.118 290.955,80.308 		"/>
		<polygon points="290.925,80.313 291.133,76.846 292.185,80.059 		"/>
		<polygon points="292.154,80.063 292.437,76.603 293.419,79.837 		"/>
		<polygon points="293.39,79.84 293.747,76.386 294.659,79.642 		"/>
		<polygon points="294.628,79.644 295.061,76.199 295.902,79.473 		"/>
		<polygon points="295.871,79.475 296.378,76.04 297.149,79.332 		"/>
		<polygon points="297.118,79.333 297.699,75.909 298.398,79.217 		"/>
		<polygon points="298.367,79.218 299.022,75.808 299.65,79.13 		"/>
		<polygon points="299.619,79.13 300.348,75.734 300.903,79.069 		"/>
		<polygon points="300.872,79.068 301.675,75.69 302.158,79.036 		"/>
		<polygon points="302.126,79.035 303.002,75.674 303.412,79.03 		"/>
		<polygon points="303.38,79.028 304.329,75.688 304.667,79.051 		"/>
		<polygon points="304.635,79.049 305.655,75.729 305.921,79.099 		"/>
		<polygon points="305.889,79.096 306.981,75.799 307.173,79.174 		"/>
		<polygon points="307.142,79.17 308.305,75.898 308.424,79.276 		"/>
		<polygon points="308.392,79.272 309.625,76.025 309.671,79.406 		"/>
		<polygon points="309.64,79.401 310.943,76.182 310.917,79.563 		"/>
		<polygon points="310.884,79.557 312.258,76.367 312.158,79.746 		"/>
		<polygon points="312.126,79.739 313.568,76.579 313.395,79.956 		"/>
		<polygon points="313.363,79.948 314.873,76.821 314.627,80.192 		"/>
		<polygon points="314.596,80.185 316.173,77.09 315.854,80.456 		"/>
		<polygon points="315.822,80.447 317.466,77.388 317.075,80.745 		"/>
		<polygon points="317.044,80.736 318.753,77.713 318.289,81.062 		"/>
		<polygon points="318.258,81.052 320.032,78.066 319.496,81.404 		"/>
		<polygon points="319.466,81.394 321.304,78.447 320.695,81.773 		"/>
		<polygon points="320.665,81.761 322.566,78.855 321.887,82.167 		"/>
		<polygon points="321.856,82.155 323.82,79.291 323.068,82.587 		"/>
		<polygon points="323.039,82.574 325.064,79.753 324.241,83.032 		"/>
		<polygon points="324.212,83.019 326.298,80.242 325.404,83.503 		"/>
		<polygon points="325.376,83.488 327.521,80.758 326.557,83.999 		"/>
		<polygon points="326.528,83.984 328.732,81.3 327.699,84.52 		"/>
		<polygon points="327.671,84.504 329.932,81.869 328.829,85.064 		"/>
		<polygon points="328.801,85.048 331.118,82.463 329.947,85.634 		"/>
		<polygon points="329.919,85.617 332.292,83.083 331.052,86.228 		"/>
		<polygon points="331.025,86.21 333.452,83.728 332.144,86.845 		"/>
		<polygon points="332.118,86.827 334.598,84.397 333.223,87.486 		"/>
		<polygon points="333.197,87.467 335.729,85.092 334.287,88.15 		"/>
		<polygon points="334.262,88.13 336.845,85.811 335.337,88.837 		"/>
		<polygon points="335.313,88.816 337.945,86.553 336.372,89.546 		"/>
		<polygon points="336.348,89.525 339.028,87.319 337.391,90.278 		"/>
		<polygon points="337.367,90.256 340.095,88.109 338.395,91.031 		"/>
		<polygon points="338.371,91.009 341.145,88.921 339.382,91.806 		"/>
		<polygon points="339.357,91.784 342.177,89.756 340.351,92.602 		"/>
		<polygon points="340.327,92.58 343.189,90.614 341.303,93.419 		"/>
		<polygon points="341.28,93.396 344.185,91.492 342.238,94.257 		"/>
		<polygon points="342.215,94.233 345.16,92.393 343.153,95.114 		"/>
		<polygon points="343.132,95.09 346.115,93.313 344.051,95.991 		"/>
		<polygon points="344.029,95.967 347.051,94.255 344.929,96.887 		"/>
		<polygon points="344.908,96.862 347.966,95.216 345.787,97.803 		"/>
		<polygon points="345.767,97.777 348.86,96.198 346.626,98.735 		"/>
		<polygon points="346.605,98.71 349.732,97.198 347.443,99.687 		"/>
		<polygon points="347.424,99.661 350.582,98.217 348.24,100.656 		"/>
		<polygon points="348.222,100.629 351.411,99.254 349.018,101.642 		"/>
		<polygon points="348.999,101.614 352.217,100.309 349.771,102.644 		"/>
		<polygon points="349.754,102.617 352.999,101.381 350.505,103.662 		"/>
		<polygon points="350.487,103.635 353.758,102.47 351.215,104.696 		"/>
		<polygon points="351.198,104.669 354.494,103.574 351.902,105.746 		"/>
		<polygon points="351.887,105.717 355.206,104.694 352.568,106.809 		"/>
		<polygon points="352.553,106.781 355.894,105.83 353.21,107.887 		"/>
		<polygon points="353.195,107.858 356.556,106.98 353.829,108.979 		"/>
		<polygon points="353.814,108.95 357.193,108.144 354.423,110.084 		"/>
		<polygon points="354.41,110.054 357.805,109.322 354.994,111.201 		"/>
		<polygon points="354.981,111.171 358.392,110.513 355.54,112.331 		"/>
		<polygon points="355.528,112.301 358.952,111.716 356.063,113.471 		"/>
		<polygon points="356.051,113.441 359.486,112.931 356.56,114.624 		"/>
		<polygon points="356.548,114.593 359.994,114.157 357.031,115.786 		"/>
		<polygon points="357.021,115.755 360.476,115.394 357.478,116.958 		"/>
		<polygon points="357.468,116.927 360.93,116.641 357.9,118.14 		"/>
		<polygon points="357.891,118.108 361.357,117.897 358.295,119.331 		"/>
		<polygon points="358.286,119.3 361.757,119.163 358.665,120.53 		"/>
		<polygon points="358.657,120.498 362.13,120.437 359.008,121.737 		"/>
		<polygon points="359.002,121.704 362.474,121.719 359.327,122.95 		"/>
		<polygon points="359.32,122.918 362.792,123.007 359.618,124.17 		"/>
		<polygon points="359.612,124.139 363.08,124.303 359.882,125.397 		"/>
		<polygon points="359.877,125.365 363.342,125.604 360.12,126.629 		"/>
		<polygon points="360.116,126.597 363.575,126.911 360.332,127.865 		"/>
		<polygon points="360.328,127.833 363.779,128.222 360.517,129.106 		"/>
		<polygon points="360.513,129.074 363.955,129.538 360.675,130.351 		"/>
		<polygon points="360.672,130.319 364.103,130.857 360.805,131.599 		"/>
		<polygon points="360.804,131.566 364.222,132.179 360.909,132.849 		"/>
		<polygon points="360.908,132.817 364.312,133.503 360.985,134.102 		"/>
		<polygon points="360.985,134.069 364.374,134.828 361.035,135.355 		"/>
		<polygon points="361.035,135.323 364.407,136.155 361.058,136.609 		"/>
		<polygon points="361.058,136.578 364.411,137.482 361.053,137.864 		"/>
		<polygon points="361.054,137.833 364.387,138.81 361.021,139.118 		"/>
		<polygon points="361.023,139.087 364.334,140.136 360.962,140.372 		"/>
		<polygon points="360.965,140.34 364.253,141.46 360.876,141.624 		"/>
		<polygon points="360.88,141.592 364.142,142.783 360.764,142.873 		"/>
		<polygon points="360.768,142.841 364.003,144.103 360.623,144.12 		"/>
		<polygon points="360.628,144.088 363.835,145.419 360.456,145.363 		"/>
		<polygon points="360.462,145.332 363.64,146.731 360.263,146.603 		"/>
		<polygon points="360.269,146.571 363.416,148.04 360.042,147.838 		"/>
		<polygon points="360.048,147.807 363.163,149.343 359.795,149.068 		"/>
		<polygon points="359.802,149.037 362.882,150.64 359.521,150.292 		"/>
		<polygon points="359.528,150.262 362.573,151.931 359.22,151.511 		"/>
		<polygon points="359.229,151.48 362.237,153.215 358.894,152.722 		"/>
		<polygon points="358.902,152.691 361.873,154.491 358.541,153.926 		"/>
		<polygon points="358.55,153.896 361.481,155.759 358.162,155.122 		"/>
		<polygon points="358.172,155.092 361.062,157.019 357.758,156.31 		"/>
		<polygon points="357.769,156.28 360.616,158.268 357.328,157.488 		"/>
		<polygon points="357.339,157.459 360.143,159.508 356.872,158.658 		"/>
		<polygon points="356.884,158.628 359.643,160.738 356.392,159.816 		"/>
		<polygon points="356.404,159.787 359.116,161.956 355.886,160.965 		"/>
		<polygon points="355.899,160.936 358.564,163.163 355.355,162.102 		"/>
		<polygon points="355.369,162.073 357.985,164.357 354.801,163.228 		"/>
		<polygon points="354.815,163.199 357.381,165.539 354.222,164.34 		"/>
		<polygon points="354.236,164.313 356.751,166.708 353.619,165.44 		"/>
		<polygon points="353.634,165.413 356.097,167.862 352.992,166.527 		"/>
		<polygon points="353.008,166.5 355.417,169.002 352.342,167.601 		"/>
		<polygon points="352.358,167.574 354.713,170.127 351.669,168.659 		"/>
		<polygon points="351.686,168.633 353.985,171.237 350.974,169.704 		"/>
		<polygon points="350.991,169.678 353.232,172.33 350.256,170.732 		"/>
		<polygon points="350.273,170.707 352.457,173.407 349.515,171.745 		"/>
		<polygon points="349.533,171.72 351.658,174.467 348.753,172.742 		"/>
		<polygon points="348.771,172.717 350.837,175.51 347.97,173.722 		"/>
		<polygon points="347.989,173.697 349.993,176.534 347.165,174.685 		"/>
		<polygon points="347.185,174.661 349.127,177.54 346.34,175.63 		"/>
		<polygon points="346.36,175.606 348.24,178.527 345.494,176.557 		"/>
		<polygon points="345.516,176.534 347.332,179.494 344.629,177.466 		"/>
		<polygon points="344.651,177.443 346.402,180.442 343.745,178.355 		"/>
		<polygon points="343.767,178.333 345.453,181.369 342.841,179.226 		"/>
		<polygon points="342.863,179.204 344.484,182.276 341.918,180.076 		"/>
		<polygon points="341.941,180.055 343.495,183.162 340.978,180.907 		"/>
		<polygon points="341.001,180.886 342.487,184.025 340.02,181.716 		"/>
		<polygon points="340.043,181.696 341.461,184.867 339.044,182.505 		"/>
		<polygon points="339.068,182.486 340.417,185.687 338.052,183.273 		"/>
		<polygon points="338.076,183.254 339.355,186.483 337.043,184.019 		"/>
		<polygon points="337.068,184 338.277,187.257 336.019,184.743 		"/>
		<polygon points="336.043,184.725 337.183,188.007 334.979,185.445 		"/>
		<polygon points="335.003,185.428 336.071,188.733 333.923,186.124 		"/>
		<polygon points="333.949,186.107 334.945,189.435 332.854,186.78 		"/>
		<polygon points="332.88,186.764 333.803,190.112 331.771,187.413 		"/>
		<polygon points="331.797,187.397 332.647,190.766 330.674,188.022 		"/>
		<polygon points="330.7,188.007 331.478,191.393 329.564,188.607 		"/>
		<polygon points="329.591,188.593 330.295,191.994 328.441,189.168 		"/>
		<polygon points="328.469,189.154 329.1,192.57 327.308,189.705 		"/>
		<polygon points="327.335,189.692 327.892,193.121 326.162,190.217 		"/>
		<polygon points="326.19,190.205 326.672,193.645 325.006,190.705 		"/>
		<polygon points="325.034,190.692 325.442,194.141 323.84,191.166 		"/>
		<polygon points="323.868,191.154 324.201,194.612 322.663,191.604 		"/>
		<polygon points="322.692,191.592 322.95,195.056 321.478,192.014 		"/>
		<polygon points="321.507,192.004 321.69,195.473 320.284,192.399 		"/>
		<polygon points="320.313,192.391 320.421,195.861 319.082,192.76 		"/>
		<polygon points="319.112,192.75 319.145,196.223 317.872,193.093 		"/>
		<polygon points="317.902,193.084 317.86,196.557 316.655,193.4 		"/>
		<polygon points="316.686,193.393 316.568,196.863 315.433,193.682 		"/>
		<polygon points="315.463,193.674 315.271,197.141 314.204,193.936 		"/>
		<polygon points="314.234,193.928 313.967,197.392 312.97,194.163 		"/>
		<polygon points="313.001,194.156 312.658,197.613 311.731,194.364 		"/>
	</g>
	<g>
		<g>
			<polygon points="234.317,151.156 236.679,153.299 233.72,152.929 			"/>
			<polygon points="234.051,152.022 236.299,154.292 233.363,153.76 			"/>
			<polygon points="233.741,152.873 235.869,155.261 232.965,154.569 			"/>
			<polygon points="233.388,153.705 235.391,156.207 232.525,155.356 			"/>
			<polygon points="232.992,154.516 234.863,157.124 232.046,156.118 			"/>
			<polygon points="232.556,155.305 234.29,158.012 231.528,156.853 			"/>
			<polygon points="232.079,156.068 233.671,158.866 230.974,157.559 			"/>
			<polygon points="231.563,156.805 233.01,159.686 230.383,158.232 			"/>
			<polygon points="231.011,157.512 232.307,160.468 229.759,158.873 			"/>
			<polygon points="230.423,158.188 231.565,161.211 229.103,159.478 			"/>
			<polygon points="229.801,158.831 230.786,161.912 228.416,160.047 			"/>
			<polygon points="229.146,159.438 229.972,162.569 227.701,160.577 			"/>
			<polygon points="228.462,160.01 229.125,163.181 226.96,161.067 			"/>
			<polygon points="227.749,160.543 228.248,163.746 226.195,161.517 			"/>
			<polygon points="227.01,161.036 227.343,164.262 225.407,161.923 			"/>
			<polygon points="226.246,161.487 226.413,164.728 224.601,162.286 			"/>
			<polygon points="225.46,161.897 225.461,165.142 223.776,162.604 			"/>
			<polygon points="224.655,162.263 224.488,165.503 222.936,162.877 			"/>
			<polygon points="223.831,162.584 223.498,165.811 222.083,163.104 			"/>
			<polygon points="222.992,162.86 222.494,166.063 221.221,163.283 			"/>
			<polygon points="222.141,163.089 221.478,166.261 220.349,163.415 			"/>
			<polygon points="221.278,163.271 220.453,166.402 219.473,163.499 			"/>
			<polygon points="220.407,163.407 219.423,166.488 218.593,163.535 			"/>
			<polygon points="219.531,163.494 218.389,166.517 217.713,163.522 			"/>
			<polygon points="218.651,163.533 217.355,166.489 216.834,163.461 			"/>
			<polygon points="217.771,163.523 216.325,166.405 215.96,163.353 			"/>
			<polygon points="216.893,163.466 215.3,166.264 215.093,163.196 			"/>
			<polygon points="216.019,163.361 214.284,166.067 214.234,162.993 			"/>
			<polygon points="215.15,163.208 213.279,165.815 213.388,162.743 			"/>
			<polygon points="214.292,163.007 212.29,165.509 212.556,162.446 			"/>
			<polygon points="213.445,162.76 211.316,165.148 211.74,162.105 			"/>
			<polygon points="212.611,162.467 210.363,164.735 210.943,161.72 			"/>
			<polygon points="211.795,162.128 209.433,164.271 210.167,161.291 			"/>
			<polygon points="210.996,161.746 208.527,163.756 209.414,160.82 			"/>
			<polygon points="210.219,161.32 207.65,163.192 208.686,160.309 			"/>
			<polygon points="209.464,160.853 206.803,162.581 207.985,159.759 			"/>
			<polygon points="208.734,160.344 205.988,161.925 207.314,159.171 			"/>
			<polygon points="208.032,159.796 205.208,161.225 206.674,158.547 			"/>
			<polygon points="207.359,159.211 204.465,160.482 206.067,157.889 			"/>
			<polygon points="206.717,158.589 203.762,159.701 205.495,157.199 			"/>
			<polygon points="206.107,157.934 203.1,158.882 204.959,156.479 			"/>
		</g>
		<g>
			<polygon points="242.556,127.667 245.638,128.917 245.207,129.668 242.192,128.667 			"/>
			<polygon points="242.151,128.832 245.233,130.083 244.802,130.833 241.787,129.833 			"/>
			<polygon points="241.746,129.998 244.828,131.249 244.396,131.999 241.382,130.999 			"/>
			<polygon points="241.34,131.164 244.422,132.415 243.991,133.165 240.977,132.165 			"/>
			<polygon points="240.935,132.329 244.017,133.58 243.586,134.331 240.571,133.33 			"/>
			<polygon points="240.53,133.495 243.611,134.746 243.181,135.496 240.166,134.496 			"/>
			<polygon points="240.124,134.661 243.206,135.912 242.775,136.662 239.761,135.662 			"/>
			<polygon points="239.719,135.826 242.801,137.077 242.37,137.828 239.355,136.827 			"/>
			<polygon points="239.313,136.992 242.396,138.243 241.965,138.993 238.95,137.993 			"/>
			<polygon points="238.908,138.158 241.99,139.409 241.56,140.159 238.545,139.159 			"/>
			<polygon points="238.503,139.323 241.585,140.574 241.154,141.325 238.14,140.324 			"/>
			<polygon points="238.098,140.489 241.18,141.74 240.749,142.49 237.734,141.49 			"/>
			<polygon points="237.692,141.655 240.774,142.906 240.344,143.656 237.329,142.656 			"/>
			<polygon points="237.287,142.821 240.369,144.071 239.938,144.822 236.924,143.821 			"/>
			<polygon points="236.882,143.986 239.964,145.237 239.533,145.987 236.518,144.987 			"/>
			<polygon points="236.477,145.152 239.559,146.403 239.128,147.153 236.113,146.153 			"/>
			<polygon points="236.071,146.318 239.153,147.568 238.723,148.319 235.708,147.318 			"/>
			<polygon points="235.666,147.483 238.748,148.734 238.317,149.484 235.302,148.484 			"/>
			<polygon points="235.261,148.649 238.343,149.9 237.912,150.65 234.897,149.65 			"/>
			<polygon points="234.855,149.815 237.938,151.066 237.506,151.816 234.492,150.815 			"/>
			<polygon points="234.45,150.98 237.532,152.231 237.101,152.982 234.086,151.981 			"/>
		</g>
	</g>
</g>
<path d="M205.23,159.995c0,0-71.407-63.864-81.267-63.366L0,97.015v-2.677h125.663c0,0,3.322,0.642,9.716,4.818
	c6.075,3.968,15.757,11.231,31.093,24.406c35.691,30.662,38.479,33.268,38.479,33.268L205.23,159.995z"/>
<polygon points="312.366,195.885 70.979,206.533 43.969,206.533 311.731,194.364 "/>
<g>
	<g>
		<path fill="#F9A715" d="M444.496,236.5c0,2.75-2.25,5-5,5h-35.438c-2.75,0-5-2.25-5-5v-9.836c0-2.75,2.25-5,5-5h35.438
			c2.75,0,5,2.25,5,5V236.5z"/>
		<path fill="#F9A715" d="M444.496,198.337c0,2.75-2.25,5-5,5h-35.438c-2.75,0-5-2.25-5-5v-9.836c0-2.75,2.25-5,5-5h35.438
			c2.75,0,5,2.25,5,5V198.337z"/>
	</g>
</g>
<g>
	<g>
		<path fill="#FFFFFF" d="M417.056,200.446v-11.314h-4.041v-2.304h10.822v2.304h-4.031v11.314H417.056z"/>
		<path fill="#FFFFFF" d="M433.851,198.021v2.425h-9.15c0.099-0.917,0.396-1.785,0.892-2.605c0.495-0.821,1.474-1.909,2.935-3.265
			c1.177-1.097,1.898-1.84,2.165-2.23c0.359-0.539,0.539-1.07,0.539-1.598c0-0.582-0.157-1.029-0.47-1.342
			c-0.313-0.313-0.744-0.47-1.296-0.47c-0.545,0-0.979,0.164-1.3,0.492c-0.322,0.329-0.508,0.874-0.558,1.636l-2.601-0.26
			c0.155-1.438,0.641-2.469,1.458-3.094c0.817-0.626,1.839-0.938,3.065-0.938c1.344,0,2.399,0.362,3.167,1.087
			s1.152,1.625,1.152,2.703c0,0.613-0.11,1.197-0.33,1.751c-0.22,0.554-0.568,1.135-1.045,1.741
			c-0.315,0.403-0.886,0.982-1.709,1.738c-0.824,0.755-1.346,1.257-1.565,1.504c-0.22,0.248-0.397,0.49-0.534,0.725H433.851z"/>
	</g>
	<g>
		<path fill="#FFFFFF" d="M415.419,238.848v-11.314h-4.041v-2.304h10.822v2.304h-4.032v11.314H415.419z"/>
		<path fill="#FFFFFF" d="M430.078,238.848h-2.61v-9.838c-0.954,0.893-2.078,1.552-3.372,1.979v-2.368
			c0.681-0.223,1.421-0.646,2.22-1.269c0.799-0.621,1.348-1.348,1.645-2.178h2.118V238.848z"/>
	</g>
</g>
<circle fill="#B3A9A2" stroke="#231F20" stroke-width="2" stroke-miterlimit="10" cx="723.467" cy="370.389" r="2.864"/>
<polygon fill="#B3A9A2" stroke="#231F20" stroke-width="2" stroke-miterlimit="10" points="730.461,358.422 723.244,370.389 
	716,358.422 "/>
<rect x="705.25" y="215.104" fill="#917063" width="420.75" height="2.705"/>
<rect x="705.25" y="212.399" fill="#4E4347" width="420.75" height="2.704"/>
<rect x="705.25" y="209.695" fill="#917063" width="420.75" height="2.704"/>
<rect x="705.25" y="206.99" fill="#4E4347" width="420.75" height="2.705"/>
<rect x="705.25" y="204.285" fill="#917063" width="420.75" height="2.705"/>
<polygon fill="#BAB5B1" stroke="#231F20" stroke-width="2" stroke-miterlimit="10" points="1126,226.429 723.379,226.429 
	700.631,217.809 1126,217.809 "/>
<path d="M377.506,228.334c0,0-6.718-5.709-35.151-7.271S92.675,218.368,0,220.341v3.124c0,0,178.313-3.875,350.837,0.045l4.942,0.37
	l3.114,0.433l2.168,0.394l3.08,0.699l2.325,0.641l2.09,0.654l1.81,0.632l2.168,0.847l2.045,0.876l1.62,0.762L377.506,228.334z"/>
<g>
	<circle fill="#A54A4F" stroke="#000000" stroke-width="2" stroke-miterlimit="10" cx="572.172" cy="201.125" r="13.444"/>
	<circle fill="#A54A4F" stroke="#000000" stroke-width="2" stroke-miterlimit="10" cx="666.583" cy="213.582" r="13.444"/>
	<circle fill="#A54A4F" stroke="#000000" stroke-width="2" stroke-miterlimit="10" cx="573.64" cy="243.102" r="13.444"/>
	<circle fill="#A54A4F" stroke="#000000" stroke-width="2" stroke-miterlimit="10" cx="668.803" cy="256.545" r="13.444"/>
	<g>
		<g>
			<circle fill="#A54A4F" stroke="#000000" stroke-width="2" stroke-miterlimit="10" cx="942.033" cy="229.314" r="13.182"/>
			<circle fill="#A54A4F" stroke="#000000" stroke-width="2" stroke-miterlimit="10" cx="940.085" cy="189.863" r="13.182"/>
		</g>
	</g>
	<circle fill="#A54A4F" stroke="#000000" stroke-width="2" stroke-miterlimit="10" cx="121.846" cy="109.402" r="12.641"/>
	<circle fill="#A54A4F" stroke="#000000" stroke-width="2" stroke-miterlimit="10" cx="218.313" cy="147.126" r="16.51"/>
	<circle fill="#A54A4F" stroke="#000000" stroke-width="2" stroke-miterlimit="10" cx="348.534" cy="286.75" r="63.286"/>
	<circle fill="#A54A4F" stroke="#000000" stroke-width="2" stroke-miterlimit="10" cx="267.235" cy="260.607" r="18.02"/>
	<circle fill="#A54A4F" stroke="#000000" stroke-width="2" stroke-miterlimit="10" cx="303.067" cy="137.021" r="57.98"/>
	<circle fill="#A54A4F" stroke="#000000" stroke-width="2" stroke-miterlimit="10" cx="161.149" cy="232.153" r="11.473"/>
</g>
</svg>
