<?xml version="1.0" encoding="utf-8"?>
<!-- Generator: Adobe Illustrator 16.0.0, SVG Export Plug-In . SVG Version: 6.00 Build 0)  -->
<!DOCTYPE svg PUBLIC "-//W3C//DTD SVG 1.1//EN" "http://www.w3.org/Graphics/SVG/1.1/DTD/svg11.dtd">
<svg version="1.1" id="Layer_1" xmlns="http://www.w3.org/2000/svg" xmlns:xlink="http://www.w3.org/1999/xlink" x="0px" y="0px"
	 width="2252px" height="762px" viewBox="0 0 2252 762" enable-background="new 0 0 2252 762" xml:space="preserve">
<rect fill="#E5E4E1" width="2252" height="762"/>
<path fill="#AFACA9" stroke="#231F20" stroke-width="2" stroke-miterlimit="10" d="M945.122,762V242.687
	c0,0-3.433-14.417,35.7-13.73s344.638,0,344.638,0s35.699-4.119,32.953,79.638l58.355,26.088l4.119,32.954l-61.788,4.119V762
	H945.122z"/>
<polygon fill="#8E8E8A" stroke="#231F20" stroke-width="2" stroke-miterlimit="10" points="1214.872,403.145 1304.404,400.893 
	1294.269,428.484 1303.277,444.532 "/>
<g>
	<circle fill="#565554" stroke="#000000" stroke-width="2" stroke-miterlimit="10" cx="1052.459" cy="362.93" r="47.745"/>
	<circle fill="#565554" stroke="#000000" stroke-width="2" stroke-miterlimit="10" cx="1053.626" cy="487.317" r="47.745"/>
</g>
<g>
	<polygon fill="#917063" points="1088.01,422.713 1342.913,456.072 1340.651,483.001 1084.104,444.532 	"/>
	<polygon fill="#4E4347" points="1087.213,427.165 1342.426,461.874 1342.012,466.807 1086.433,431.526 	"/>
	<polygon fill="#4E4347" points="1085.7,435.617 1341.583,471.909 1341.183,476.674 1084.993,439.571 	"/>
</g>
<g>
	<polygon fill="#917063" points="1373.741,473.191 1626.217,521.606 1622.363,548.354 1368.547,494.74 	"/>
	<polygon fill="#4E4347" points="1372.681,477.589 1625.387,527.369 1624.681,532.269 1371.642,481.896 	"/>
	<polygon fill="#4E4347" points="1370.669,485.937 1623.95,537.337 1623.268,542.068 1369.729,489.843 	"/>
</g>
<g>
	<polygon fill="#917063" points="1414.851,548.345 1671.926,547.752 1673.24,574.743 1413.858,570.488 	"/>
	<polygon fill="#4E4347" points="1414.647,552.863 1672.209,553.567 1672.449,558.511 1414.448,557.29 	"/>
	<polygon fill="#4E4347" points="1414.264,561.441 1672.698,563.626 1672.931,568.4 1414.085,565.455 	"/>
</g>
<g>
	<polygon fill="#917063" points="1414.75,568.993 1671.825,568.4 1673.14,595.392 1413.758,591.137 	"/>
	<polygon fill="#4E4347" points="1414.547,573.512 1672.108,574.216 1672.349,579.159 1414.348,577.938 	"/>
	<polygon fill="#4E4347" points="1414.163,582.09 1672.598,584.274 1672.83,589.049 1413.984,586.104 	"/>
</g>
<g>
	<polygon fill="#917063" points="1414.649,589.642 1671.725,589.049 1673.039,616.04 1413.657,611.785 	"/>
	<polygon fill="#4E4347" points="1414.446,594.16 1672.008,594.864 1672.248,599.808 1414.247,598.587 	"/>
	<polygon fill="#4E4347" points="1414.063,602.738 1672.497,604.923 1672.729,609.697 1413.884,606.752 	"/>
</g>
<g>
	<polygon fill="#917063" points="1414.549,610.29 1671.624,609.697 1672.938,636.688 1413.557,632.434 	"/>
	<polygon fill="#4E4347" points="1414.346,614.809 1671.907,615.513 1672.147,620.456 1414.146,619.235 	"/>
	<polygon fill="#4E4347" points="1413.962,623.387 1672.396,625.571 1672.629,630.346 1413.783,627.4 	"/>
</g>
<g>
	<polygon fill="#917063" points="1414.448,630.938 1671.523,630.346 1672.838,657.337 1413.456,653.082 	"/>
	<polygon fill="#4E4347" points="1414.245,635.457 1671.807,636.161 1672.047,641.104 1414.046,639.884 	"/>
	<polygon fill="#4E4347" points="1413.861,644.035 1672.296,646.22 1672.528,650.994 1413.683,648.049 	"/>
</g>
<g>
	<polygon fill="#917063" points="1414.348,651.587 1671.423,650.994 1672.737,677.985 1413.355,673.73 	"/>
	<polygon fill="#4E4347" points="1414.145,656.105 1671.706,656.81 1671.946,661.753 1413.945,660.532 	"/>
	<polygon fill="#4E4347" points="1413.761,664.684 1672.195,666.868 1672.428,671.643 1413.582,668.697 	"/>
</g>
<g>
	<polygon fill="#917063" points="1414.247,672.235 1671.322,671.643 1672.637,698.634 1413.255,694.379 	"/>
	<polygon fill="#4E4347" points="1414.044,676.754 1671.605,677.458 1671.846,682.401 1413.845,681.181 	"/>
	<polygon fill="#4E4347" points="1413.66,685.332 1672.095,687.517 1672.327,692.291 1413.481,689.346 	"/>
</g>
<line fill="none" stroke="#231F20" stroke-width="2" stroke-miterlimit="10" x1="1144.345" y1="512.93" x2="1333.166" y2="539.607"/>
<line fill="none" stroke="#231F20" stroke-width="2" stroke-miterlimit="10" x1="1151.521" y1="459.65" x2="1337.606" y2="486.203"/>
<polygon fill="#B3ABAC" stroke="#231F20" stroke-width="2" stroke-miterlimit="10" points="1693.065,703.618 1693.065,456.146 
	1681.208,456.146 1681.208,703.618 1381.577,703.618 1381.577,716.844 1697.626,716.844 1697.626,703.618 "/>
<path fill="#B3AEA8" stroke="#231F20" stroke-width="2" stroke-miterlimit="10" d="M1668.33,738.19c0,11.79-9.561,21.34-21.35,21.34
	c-1.211,0-2.391-0.101-3.54-0.3c-10.101-1.681-17.801-10.461-17.801-21.04c0-10.73,7.92-19.62,18.23-21.12
	c1.02-0.15,2.05-0.23,3.11-0.23C1658.77,716.84,1668.33,726.4,1668.33,738.19z"/>
<path fill="#8B8580" stroke="#231F20" stroke-width="2" stroke-miterlimit="10" d="M1643.44,759.23c-1.021,0.159-2.04,0.3-3.091,0.3
	c-11.79,0-21.35-9.55-21.35-21.34s9.56-21.351,21.35-21.351c1.12,0,2.44,0.061,3.521,0.23c-10.311,1.5-18.23,10.39-18.23,21.12
	C1625.64,748.77,1633.34,757.55,1643.44,759.23z"/>
<circle fill="none" stroke="#231F20" stroke-width="2" stroke-miterlimit="10" cx="1646.465" cy="737.901" r="7.807"/>
<polygon fill="#B3A9A2" stroke="#231F20" stroke-width="2" stroke-miterlimit="10" points="1661.414,716.84 1645.263,736.663 
	1627.093,716.844 "/>
<path fill="#86847D" stroke="#231F20" stroke-width="2" stroke-miterlimit="10" d="M1449.69,760.08c-2.091,0.68-4.33,1.04-6.65,1.04
	c-11.97,0-21.67-9.7-21.67-21.67s9.7-21.67,21.67-21.67c0.729,0,1.45,0.04,2.16,0.109c-8.71,2.811-15,10.99-15,20.63
	C1430.2,749.75,1438.74,758.98,1449.69,760.08z"/>
<path fill="#B0ADA7" stroke="#231F20" stroke-width="2" stroke-miterlimit="10" d="M1464.71,739.45c0,9.649-6.3,17.819-15.02,20.63
	c-10.95-1.1-19.49-10.33-19.49-21.561c0-9.64,6.29-17.819,15-20.63C1456.16,718.97,1464.71,728.21,1464.71,739.45z"/>
<rect x="1872.604" y="752.986" fill="none" stroke="#231F20" stroke-width="2" stroke-miterlimit="10" width="102.58" height="9.014"/>
<polyline fill="#B1ABA6" stroke="#231F20" stroke-width="2" stroke-miterlimit="10" points="1894.667,752.986 1894.667,217 
	1954,217 1954,752.986 "/>
<g>
	<g>
		<polygon fill="#B1ABA6" stroke="#231F20" stroke-width="2" stroke-miterlimit="10" points="1894.667,235 1851.333,249.667 
			1876.667,290.333 1894.667,268.333 		"/>
		<path fill="#B1ABA6" stroke="#231F20" stroke-width="2" stroke-miterlimit="10" d="M1851.333,249.667l-56.666,104
			c0,0-15.333-4.667-30-18.667l8.666,23.333c0,0,70,26,78,26s13.334-3.333,13.334-3.333l12-26l-34-16l34-48.667L1851.333,249.667z"
			/>
	</g>
</g>
<path fill="#ACA9A2" stroke="#000000" stroke-width="2" stroke-miterlimit="10" d="M815.076,762v-58.977l-22.647-44.132H484.085
	c0,0-16.26-3.484-17.421-21.485s0-70.263,0-70.263H358.657V762H815.076z"/>
<polygon fill="#ABA99F" stroke="#000000" stroke-width="2" stroke-miterlimit="10" points="0,466.684 0,590.951 358.657,590.951 
	358.657,466.684 358.657,464.307 0,464.307 "/>
<g>
	<rect y="431.359" fill="#917063" width="1051.277" height="4.258"/>
	<rect y="427.102" fill="#4E4347" width="1051.277" height="4.258"/>
	<rect y="422.844" fill="#917063" width="1051.277" height="4.258"/>
	<rect y="418.586" fill="#4E4347" width="1051.277" height="4.258"/>
	<rect y="414.328" fill="#917063" width="1051.277" height="4.258"/>
</g>
<polygon fill="#AAA7A3" stroke="#000000" stroke-width="2" stroke-miterlimit="10" points="898.226,435.617 898.226,463.165 
	968.138,463.165 991.831,435.617 "/>
<rect y="331.56" fill="#ADA8A5" stroke="#000000" stroke-width="2" stroke-miterlimit="10" width="270.526" height="43.226"/>
<polygon fill="#ADA8A5" stroke="#000000" stroke-width="2" stroke-miterlimit="10" points="270.526,374.786 336.636,374.786 
	336.636,256.975 616.667,256.975 616.667,175.667 216.667,175.667 216.667,287.667 270.526,287.667 "/>
<g>
	<g>
		<polygon points="752.398,459.632 757.412,453.945 754.905,460.887 		"/>
		<polygon points="754.848,460.855 759.984,455.278 757.328,462.164 		"/>
		<polygon points="757.271,462.132 762.527,456.667 759.723,463.494 		"/>
		<polygon points="759.667,463.46 765.04,458.11 762.088,464.875 		"/>
		<polygon points="762.032,464.84 767.52,459.607 764.423,466.307 		"/>
		<polygon points="764.368,466.271 769.967,461.158 766.726,467.789 		"/>
		<polygon points="766.672,467.752 772.38,462.762 768.997,469.32 		"/>
		<polygon points="768.943,469.282 774.758,464.417 771.233,470.9 		"/>
		<polygon points="771.181,470.861 777.1,466.123 773.436,472.529 		"/>
		<polygon points="773.384,472.488 779.404,467.88 775.602,474.205 		"/>
		<polygon points="775.552,474.163 781.67,469.686 777.732,475.928 		"/>
		<polygon points="777.683,475.884 783.896,471.54 779.824,477.695 		"/>
		<polygon points="779.775,477.65 786.082,473.442 781.877,479.508 		"/>
		<polygon points="781.83,479.462 788.225,475.392 783.891,481.364 		"/>
		<polygon points="783.844,481.317 790.326,477.387 785.864,483.264 		"/>
		<polygon points="785.818,483.216 792.384,479.427 787.795,485.206 		"/>
		<polygon points="787.751,485.157 794.396,481.511 789.684,487.189 		"/>
		<polygon points="789.641,487.14 796.364,483.638 791.529,489.213 		"/>
		<polygon points="791.488,489.162 798.285,485.807 793.331,491.276 		"/>
		<polygon points="793.29,491.225 800.158,488.017 795.087,493.378 		"/>
		<polygon points="795.047,493.325 801.983,490.267 796.797,495.518 		"/>
		<polygon points="796.759,495.464 803.759,492.556 798.461,497.693 		"/>
		<polygon points="798.424,497.639 805.485,494.883 800.077,499.904 		"/>
		<polygon points="800.042,499.849 807.161,497.247 801.645,502.15 		"/>
		<polygon points="801.611,502.094 808.785,499.646 803.164,504.43 		"/>
		<polygon points="803.131,504.372 810.356,502.081 804.633,506.741 		"/>
		<polygon points="804.602,506.683 811.875,504.549 806.052,509.084 		"/>
		<polygon points="806.022,509.024 813.34,507.049 807.42,511.457 		"/>
		<polygon points="807.392,511.396 814.75,509.58 808.737,513.858 		"/>
		<polygon points="808.709,513.798 816.105,512.141 810.001,516.288 		"/>
		<polygon points="809.975,516.227 817.405,514.73 811.212,518.744 		"/>
		<polygon points="811.188,518.683 818.648,517.348 812.37,521.227 		"/>
		<polygon points="812.347,521.164 819.835,519.991 813.474,523.733 		"/>
		<polygon points="813.452,523.67 820.964,522.659 814.523,526.264 		"/>
		<polygon points="814.503,526.199 822.035,525.352 815.518,528.815 		"/>
		<polygon points="815.499,528.751 823.047,528.066 816.457,531.389 		"/>
		<polygon points="816.439,531.323 824,530.803 817.34,533.981 		"/>
		<polygon points="817.323,533.915 824.895,533.559 818.167,536.593 		"/>
		<polygon points="818.151,536.525 825.729,536.333 818.937,539.222 		"/>
		<polygon points="818.923,539.153 826.502,539.125 819.65,541.866 		"/>
		<polygon points="819.637,541.798 827.216,541.934 820.306,544.525 		"/>
		<polygon points="820.294,544.457 827.868,544.757 820.904,547.198 		"/>
		<polygon points="820.894,547.13 828.459,547.593 821.444,549.884 		"/>
		<polygon points="821.436,549.814 828.989,550.441 821.926,552.58 		"/>
		<polygon points="821.919,552.511 829.457,553.301 822.349,555.286 		"/>
		<polygon points="822.344,555.217 829.863,556.17 822.714,558.001 		"/>
		<polygon points="822.71,557.932 830.207,559.047 823.02,560.723 		"/>
		<polygon points="823.018,560.653 830.489,561.931 823.267,563.45 		"/>
		<polygon points="823.266,563.381 830.708,564.819 823.455,566.183 		"/>
		<polygon points="823.456,566.113 830.865,567.713 823.584,568.919 		"/>
		<polygon points="823.586,568.85 830.958,570.608 823.653,571.657 		"/>
		<polygon points="823.657,571.588 830.99,573.506 823.664,574.396 		"/>
		<polygon points="823.668,574.327 830.958,576.403 823.615,577.135 		"/>
		<polygon points="823.621,577.065 830.864,579.299 823.506,579.871 		"/>
		<polygon points="823.514,579.803 830.708,582.192 823.339,582.604 		"/>
		<polygon points="823.348,582.537 830.488,585.081 823.112,585.334 		"/>
		<polygon points="823.123,585.267 830.207,587.965 822.827,588.058 		"/>
		<polygon points="822.839,587.991 829.862,590.842 822.482,590.774 		"/>
		<polygon points="822.496,590.709 829.456,593.711 822.08,593.483 		"/>
		<polygon points="822.094,593.418 828.988,596.57 821.618,596.184 		"/>
		<polygon points="821.634,596.118 828.458,599.419 821.098,598.873 		"/>
		<polygon points="821.116,598.808 827.867,602.255 820.52,601.551 		"/>
		<polygon points="820.539,601.485 827.214,605.078 819.884,604.215 		"/>
		<polygon points="819.905,604.15 826.5,607.887 819.191,606.864 		"/>
		<polygon points="819.213,606.801 825.726,610.679 818.44,609.498 		"/>
		<polygon points="818.464,609.436 824.892,613.453 817.633,612.115 		"/>
		<polygon points="817.658,612.054 823.998,616.209 816.77,614.715 		"/>
		<polygon points="816.796,614.653 823.044,618.945 815.85,617.295 		"/>
		<polygon points="815.877,617.233 822.031,621.66 814.875,619.854 		"/>
		<polygon points="814.903,619.793 820.96,624.353 813.845,622.393 		"/>
		<polygon points="813.875,622.331 819.831,627.021 812.76,624.907 		"/>
		<polygon points="812.791,624.847 818.645,629.664 811.621,627.398 		"/>
		<polygon points="811.653,627.338 817.401,632.281 810.428,629.864 		"/>
		<polygon points="810.462,629.804 816.101,634.871 809.182,632.304 		"/>
		<polygon points="809.217,632.243 814.746,637.432 807.883,634.716 		"/>
		<polygon points="807.92,634.655 813.335,639.963 806.533,637.099 		"/>
		<polygon points="806.571,637.039 811.87,642.463 805.132,639.452 		"/>
		<polygon points="805.171,639.394 810.352,644.931 803.68,641.774 		"/>
		<polygon points="803.72,641.717 808.78,647.364 802.178,644.064 		"/>
		<polygon points="802.22,644.008 807.156,649.764 800.626,646.322 		"/>
		<polygon points="800.67,646.266 805.48,652.127 799.027,648.546 		"/>
		<polygon points="799.071,648.49 803.753,654.454 797.379,650.734 		"/>
		<polygon points="797.425,650.68 801.977,656.743 795.685,652.887 		"/>
		<polygon points="795.732,652.833 800.152,658.993 793.945,655.002 		"/>
		<polygon points="793.993,654.949 798.278,661.203 792.159,657.079 		"/>
		<polygon points="792.208,657.027 796.357,663.372 790.329,659.116 		"/>
		<polygon points="790.379,659.066 794.39,665.499 788.455,661.113 		"/>
		<polygon points="788.506,661.065 792.377,667.583 786.538,663.069 		"/>
		<polygon points="786.59,663.023 790.319,669.623 784.579,664.984 		"/>
		<polygon points="784.633,664.939 788.218,671.618 782.58,666.856 		"/>
		<polygon points="782.634,666.813 786.074,673.567 780.54,668.685 		"/>
		<polygon points="780.596,668.642 783.889,675.47 778.461,670.468 		"/>
		<polygon points="778.518,670.427 781.663,677.324 776.345,672.206 		"/>
		<polygon points="776.402,672.166 779.397,679.13 774.191,673.898 		"/>
		<polygon points="774.25,673.859 777.093,680.886 772.001,675.543 		"/>
		<polygon points="772.061,675.506 774.751,682.592 769.776,677.141 		"/>
		<polygon points="769.836,677.104 772.373,684.247 767.517,678.689 		"/>
		<polygon points="767.578,678.654 769.959,685.851 765.225,680.188 		"/>
		<polygon points="765.287,680.155 767.511,687.401 762.9,681.638 		"/>
		<polygon points="762.963,681.606 765.031,688.898 760.545,683.036 		"/>
		<polygon points="760.609,683.007 762.519,690.342 758.161,684.384 		"/>
		<polygon points="758.226,684.355 759.976,691.73 755.748,685.68 		"/>
		<polygon points="755.813,685.652 757.403,693.063 753.308,686.923 		"/>
		<polygon points="753.373,686.896 754.803,694.341 750.841,688.113 		"/>
		<polygon points="750.907,688.088 752.175,695.562 748.349,689.25 		"/>
		<polygon points="748.415,689.226 749.521,696.726 745.833,690.332 		"/>
		<polygon points="745.899,690.31 746.843,697.831 743.293,691.359 		"/>
		<polygon points="743.361,691.339 744.142,698.879 740.733,692.332 		"/>
		<polygon points="740.801,692.313 741.419,699.868 738.152,693.249 		"/>
		<polygon points="738.22,693.23 738.675,700.798 735.552,694.109 		"/>
		<polygon points="735.621,694.093 735.911,701.668 732.934,694.914 		"/>
		<polygon points="733.003,694.898 733.129,702.479 730.299,695.661 		"/>
		<polygon points="730.368,695.647 730.331,703.229 727.648,696.352 		"/>
		<polygon points="727.718,696.339 727.516,703.918 724.983,696.984 		"/>
		<polygon points="725.053,696.974 724.688,704.546 722.306,697.56 		"/>
		<polygon points="722.375,697.55 721.846,705.112 719.616,698.076 		"/>
		<polygon points="719.686,698.068 718.993,705.617 716.916,698.535 		"/>
		<polygon points="716.986,698.528 716.13,706.061 714.206,698.936 		"/>
		<polygon points="714.276,698.93 713.258,706.442 711.488,699.277 		"/>
		<polygon points="711.559,699.272 710.378,706.762 708.764,699.56 		"/>
		<polygon points="708.835,699.557 707.492,707.019 706.034,699.783 		"/>
		<polygon points="706.105,699.781 704.601,707.213 703.3,699.947 		"/>
		<polygon points="703.371,699.947 701.706,707.345 700.563,700.053 		"/>
		<polygon points="700.634,700.054 698.81,707.414 697.825,700.099 		"/>
		<polygon points="697.896,700.102 695.912,707.42 695.086,700.085 		"/>
		<polygon points="695.157,700.09 693.015,707.363 692.348,700.013 		"/>
		<polygon points="692.418,700.019 690.12,707.244 689.612,699.881 		"/>
		<polygon points="689.683,699.889 687.229,707.063 686.88,699.69 		"/>
		<polygon points="686.95,699.699 684.341,706.818 684.152,699.44 		"/>
		<polygon points="684.223,699.451 681.46,706.512 681.431,699.132 		"/>
		<polygon points="681.501,699.144 678.586,706.143 678.716,698.764 		"/>
		<polygon points="678.787,698.777 675.721,705.712 676.011,698.337 		"/>
		<polygon points="676.081,698.353 672.866,705.219 673.315,697.853 		"/>
		<polygon points="673.384,697.869 670.022,704.664 670.63,697.31 		"/>
		<polygon points="670.699,697.328 667.191,704.048 667.958,696.709 		"/>
		<polygon points="668.026,696.729 664.374,703.371 665.299,696.051 		"/>
		<polygon points="665.367,696.071 661.572,702.634 662.656,695.335 		"/>
		<polygon points="662.723,695.356 658.787,701.836 660.028,694.562 		"/>
		<polygon points="660.095,694.585 656.019,700.978 657.418,693.731 		"/>
		<polygon points="657.484,693.757 653.271,700.06 654.826,692.846 		"/>
		<polygon points="654.892,692.872 650.543,699.082 652.254,691.904 		"/>
		<polygon points="652.319,691.932 647.837,698.046 649.704,690.907 		"/>
		<polygon points="649.768,690.936 645.155,696.952 647.175,689.855 		"/>
		<polygon points="647.238,689.885 642.496,695.8 644.669,688.749 		"/>
		<polygon points="644.732,688.779 639.863,694.591 642.188,687.589 		"/>
		<polygon points="642.25,687.62 637.257,693.325 639.733,686.375 		"/>
		<polygon points="639.794,686.407 634.679,692.003 637.305,685.108 		"/>
		<polygon points="637.365,685.142 632.13,690.626 634.905,683.789 		"/>
		<polygon points="634.964,683.824 629.611,689.193 632.533,682.418 		"/>
		<polygon points="632.592,682.455 627.125,687.707 630.192,680.996 		"/>
		<polygon points="630.25,681.035 624.67,686.167 627.882,679.524 		"/>
		<polygon points="627.939,679.564 622.25,684.574 625.604,678.003 		"/>
		<polygon points="625.661,678.044 619.865,682.93 623.36,676.433 		"/>
		<polygon points="623.416,676.475 617.516,681.234 621.151,674.814 		"/>
		<polygon points="621.206,674.857 615.204,679.488 618.977,673.148 		"/>
		<polygon points="619.031,673.192 612.93,677.692 616.839,671.436 		"/>
		<polygon points="616.893,671.48 610.695,675.848 614.739,669.677 		"/>
		<polygon points="614.792,669.723 608.501,673.955 612.678,667.873 		"/>
		<polygon points="612.729,667.92 606.349,672.016 610.656,666.025 		"/>
		<polygon points="610.706,666.073 604.239,670.03 608.674,664.135 		"/>
		<polygon points="608.724,664.184 602.173,667.999 606.734,662.201 		"/>
		<polygon points="606.783,662.251 600.151,665.924 604.836,660.227 		"/>
		<polygon points="604.884,660.277 598.174,663.806 602.982,658.211 		"/>
		<polygon points="603.028,658.263 596.244,661.646 601.171,656.155 		"/>
		<polygon points="601.217,656.208 594.36,659.443 599.406,654.062 		"/>
		<polygon points="599.45,654.115 592.525,657.201 597.686,651.93 		"/>
		<polygon points="597.729,651.984 590.739,654.92 596.013,649.762 		"/>
		<polygon points="596.054,649.817 589.002,652.601 594.387,647.558 		"/>
		<polygon points="594.427,647.614 587.316,650.244 592.809,645.319 		"/>
		<polygon points="592.848,645.376 585.682,647.852 591.279,643.047 		"/>
		<polygon points="591.317,643.104 584.099,645.425 589.799,640.742 		"/>
		<polygon points="589.836,640.801 582.57,642.964 588.37,638.406 		"/>
		<polygon points="588.405,638.465 581.094,640.471 586.991,636.039 		"/>
		<polygon points="587.025,636.099 579.672,637.946 585.664,633.644 		"/>
		<polygon points="585.697,633.703 578.305,635.392 584.389,631.22 		"/>
		<polygon points="584.42,631.279 576.994,632.808 583.167,628.769 		"/>
		<polygon points="583.197,628.829 575.739,630.196 581.998,626.292 		"/>
		<polygon points="582.026,626.353 574.541,627.559 580.882,623.79 		"/>
		<polygon points="580.91,623.852 573.4,624.896 579.822,621.265 		"/>
		<polygon points="579.848,621.327 572.317,622.208 578.816,618.717 		"/>
		<polygon points="578.841,618.78 571.293,619.498 577.865,616.148 		"/>
		<polygon points="577.889,616.212 570.327,616.767 576.971,613.56 		"/>
		<polygon points="576.993,613.624 569.421,614.015 576.132,610.952 		"/>
		<polygon points="576.153,611.017 568.574,611.244 575.351,608.327 		"/>
		<polygon points="575.37,608.392 567.788,608.455 574.625,605.686 		"/>
		<polygon points="574.644,605.751 567.062,605.65 573.958,603.029 		"/>
		<polygon points="573.975,603.095 566.396,602.83 573.348,600.359 		"/>
		<polygon points="573.363,600.425 565.792,599.996 572.796,597.677 		"/>
		<polygon points="572.81,597.742 565.25,597.15 572.302,594.982 		"/>
		<polygon points="572.314,595.049 564.769,594.293 571.866,592.278 		"/>
		<polygon points="571.877,592.345 564.35,591.426 571.489,589.565 		"/>
		<polygon points="571.499,589.632 563.993,588.551 571.171,586.845 		"/>
		<polygon points="571.179,586.911 563.699,585.668 570.912,584.118 		"/>
		<polygon points="570.918,584.185 563.467,582.78 570.711,581.387 		"/>
		<polygon points="570.717,581.453 563.297,579.888 570.57,578.651 		"/>
		<polygon points="570.574,578.718 563.19,576.992 570.488,575.914 		"/>
		<polygon points="570.491,575.98 563.146,574.095 570.466,573.175 		"/>
		<polygon points="570.467,573.241 563.165,571.197 570.502,570.436 		"/>
		<polygon points="570.502,570.503 563.246,568.301 570.598,567.698 		"/>
		<polygon points="570.596,567.766 563.39,565.407 570.753,564.964 		"/>
		<polygon points="570.75,565.031 563.596,562.518 570.968,562.233 		"/>
		<polygon points="570.963,562.301 563.865,559.633 571.241,559.508 		"/>
		<polygon points="571.235,559.575 564.196,556.755 571.573,556.789 		"/>
		<polygon points="571.565,556.856 564.59,553.885 571.964,554.078 		"/>
		<polygon points="571.955,554.146 565.045,551.023 572.414,551.376 		"/>
		<polygon points="572.403,551.443 565.563,548.173 572.921,548.685 		"/>
		<polygon points="572.909,548.752 566.141,545.334 573.487,546.005 		"/>
		<polygon points="573.474,546.071 566.781,542.508 574.111,543.338 		"/>
		<polygon points="574.096,543.404 567.482,539.696 574.792,540.685 		"/>
		<polygon points="574.776,540.751 568.244,536.9 575.531,538.047 		"/>
		<polygon points="575.513,538.113 569.066,534.122 576.326,535.426 		"/>
		<polygon points="576.307,535.492 569.948,531.362 577.178,532.822 		"/>
	</g>
	<g>
		<g>
			<polygon points="568.563,532.919 575.414,533.428 569.439,529.96 			"/>
			<polygon points="569.226,530.771 576.096,530.852 569.917,527.763 			"/>
			<polygon points="569.754,528.585 576.616,528.237 570.256,525.54 			"/>
			<polygon points="570.146,526.371 576.972,525.596 570.457,523.301 			"/>
			<polygon points="570.397,524.137 577.162,522.938 570.517,521.053 			"/>
			<polygon points="570.51,521.891 577.187,520.272 570.437,518.806 			"/>
			<polygon points="570.482,519.643 577.045,517.611 570.216,516.568 			"/>
			<polygon points="570.314,517.4 576.737,514.964 569.857,514.349 			"/>
			<polygon points="570.006,515.173 576.266,512.341 569.361,512.155 			"/>
			<polygon points="569.561,512.969 575.631,509.752 568.728,509.997 			"/>
			<polygon points="568.978,510.797 574.837,507.208 567.962,507.883 			"/>
			<polygon points="568.261,508.666 573.885,504.719 567.065,505.82 			"/>
		</g>
		<polygon points="567.413,506.584 572.78,502.293 566.042,503.818 		"/>
		<polygon points="566.437,504.559 571.526,499.941 564.896,501.884 		"/>
		<polygon points="565.336,502.598 570.128,497.673 563.632,500.024 		"/>
		<polygon points="564.116,500.709 568.591,495.495 562.254,498.247 		"/>
		<polygon points="562.78,498.9 566.921,493.418 560.769,496.56 		"/>
		<polygon points="561.333,497.179 565.125,491.449 559.18,494.968 		"/>
		<polygon points="559.783,495.551 563.209,489.596 557.496,493.479 		"/>
		<polygon points="558.133,494.022 561.182,487.865 555.722,492.097 		"/>
		<polygon points="556.392,492.6 559.051,486.265 553.865,490.828 		"/>
		<polygon points="554.565,491.288 556.824,484.8 551.933,489.678 		"/>
		<polygon points="552.661,490.094 554.51,483.477 549.933,488.65 		"/>
		<polygon points="550.685,489.021 552.119,482.301 547.873,487.75 		"/>
		<polygon points="548.646,488.072 549.658,481.276 545.761,486.979 		"/>
		<polygon points="546.553,487.253 547.139,480.407 543.604,486.342 		"/>
		<polygon points="544.412,486.565 544.57,479.696 541.413,485.84 		"/>
		<polygon points="542.232,486.013 541.962,479.147 539.194,485.476 		"/>
		<polygon points="540.022,485.598 539.325,478.762 536.957,485.251 		"/>
		<polygon points="537.791,485.32 536.668,478.542 534.709,485.166 		"/>
		<polygon points="535.547,485.183 534.004,478.488 532.461,485.222 		"/>
		<polygon points="533.298,485.186 531.341,478.601 530.221,485.417 		"/>
		<polygon points="531.054,485.329 528.69,478.879 527.998,485.752 		"/>
	</g>
</g>
<path d="M527.998,485.752c0,0-341.117,48.093-527.998,91.564v-5.479c197.5-46.521,528.69-92.959,528.69-92.959L527.998,485.752z"/>
<rect x="75.752" y="374.786" fill="#ADA8A5" stroke="#000000" stroke-width="2" stroke-miterlimit="10" width="30.923" height="12.618"/>
<path fill="none" stroke="#000000" stroke-width="2" stroke-miterlimit="10" d="M106.676,387.404l41.547,18.329
	c0,0,15.227,6.803,25.593-3.078"/>
<path fill="none" stroke="#000000" stroke-width="2" stroke-miterlimit="10" d="M75.816,387.404L34.27,405.733
	c0,0-15.227,6.803-25.593-3.078"/>
<g>
	<g>
		<polygon points="491.077,259.389 484.671,256.703 491.431,256.845 		"/>
		<polygon points="491.421,256.903 485.074,254.08 491.83,254.367 		"/>
		<polygon points="491.818,254.426 485.535,251.465 492.282,251.899 		"/>
		<polygon points="492.27,251.958 486.051,248.862 492.789,249.441 		"/>
		<polygon points="492.773,249.499 486.624,246.27 493.347,246.995 		"/>
		<polygon points="493.331,247.053 487.253,243.691 493.958,244.562 		"/>
		<polygon points="493.94,244.619 487.938,241.127 494.622,242.141 		"/>
		<polygon points="494.603,242.199 488.677,238.577 495.337,239.737 		"/>
		<polygon points="495.318,239.793 489.472,236.044 496.106,237.348 		"/>
		<polygon points="496.085,237.404 490.321,233.53 496.926,234.976 		"/>
		<polygon points="496.903,235.032 491.225,231.033 497.796,232.623 		"/>
		<polygon points="497.772,232.678 492.182,228.558 498.718,230.289 		"/>
		<polygon points="498.692,230.343 493.192,226.104 499.689,227.975 		"/>
		<polygon points="499.663,228.03 494.255,223.671 500.711,225.683 		"/>
		<polygon points="500.683,225.737 495.371,221.263 501.782,223.414 		"/>
		<polygon points="501.753,223.467 496.54,218.879 502.901,221.168 		"/>
		<polygon points="502.871,221.221 497.759,216.521 504.07,218.947 		"/>
		<polygon points="504.038,218.999 499.028,214.19 505.285,216.752 		"/>
		<polygon points="505.252,216.803 500.349,211.887 506.549,214.584 		"/>
		<polygon points="506.515,214.634 501.718,209.613 507.858,212.444 		"/>
		<polygon points="507.822,212.493 503.137,207.369 509.214,210.332 		"/>
		<polygon points="509.177,210.381 504.603,205.156 510.615,208.25 		"/>
		<polygon points="510.577,208.298 506.117,202.976 512.061,206.2 		"/>
		<polygon points="512.021,206.246 507.678,200.828 513.55,204.181 		"/>
		<polygon points="513.51,204.227 509.285,198.716 515.083,202.193 		"/>
		<polygon points="515.042,202.239 510.938,196.639 516.659,200.241 		"/>
		<polygon points="516.616,200.286 512.633,194.597 518.276,198.322 		"/>
		<polygon points="518.232,198.366 514.375,192.593 519.935,196.439 		"/>
		<polygon points="519.891,196.482 516.158,190.627 521.634,194.592 		"/>
		<polygon points="521.588,194.635 517.984,188.7 523.373,192.783 		"/>
		<polygon points="523.326,192.824 519.85,186.813 525.15,191.011 		"/>
		<polygon points="525.102,191.052 521.758,184.967 526.966,189.279 		"/>
		<polygon points="526.916,189.319 523.704,183.162 528.818,187.586 		"/>
		<polygon points="528.768,187.625 525.69,181.4 530.706,185.934 		"/>
		<polygon points="530.655,185.972 527.714,179.682 532.63,184.322 		"/>
		<polygon points="532.578,184.359 529.773,178.007 534.588,182.753 		"/>
		<polygon points="534.535,182.789 531.868,176.377 536.58,181.227 		"/>
		<polygon points="536.526,181.261 533.999,174.794 538.604,179.744 		"/>
		<polygon points="538.551,179.777 536.163,173.257 540.66,178.305 		"/>
		<polygon points="540.605,178.337 538.359,171.767 542.747,176.91 		"/>
		<polygon points="542.691,176.942 540.588,170.324 544.863,175.562 		"/>
		<polygon points="544.807,175.592 542.847,168.931 547.007,174.259 		"/>
		<polygon points="546.951,174.288 545.136,167.585 549.18,173.003 		"/>
		<polygon points="549.123,173.031 547.452,166.292 551.379,171.795 		"/>
		<polygon points="551.322,171.822 549.798,165.047 553.604,170.634 		"/>
		<polygon points="553.546,170.66 552.169,163.854 555.854,169.522 		"/>
		<polygon points="555.795,169.546 554.565,162.712 558.126,168.459 		"/>
		<polygon points="558.067,168.481 556.986,161.622 560.421,167.445 		"/>
		<polygon points="560.363,167.466 559.429,160.585 562.738,166.481 		"/>
		<polygon points="562.678,166.501 561.895,159.602 565.074,165.568 		"/>
		<polygon points="565.016,165.586 564.381,158.671 567.431,164.705 		"/>
		<polygon points="567.372,164.722 566.887,157.795 569.805,163.894 		"/>
		<polygon points="569.746,163.909 569.411,156.973 572.197,163.133 		"/>
		<polygon points="572.137,163.148 571.952,156.206 574.604,162.425 		"/>
		<polygon points="574.543,162.438 574.509,155.494 577.026,161.77 		"/>
		<polygon points="576.965,161.781 577.082,154.837 579.462,161.166 		"/>
		<polygon points="579.401,161.177 579.667,154.236 581.91,160.616 		"/>
		<polygon points="581.849,160.625 582.265,153.692 584.369,160.118 		"/>
		<polygon points="584.309,160.126 584.874,153.205 586.839,159.674 		"/>
		<polygon points="586.779,159.68 587.493,152.772 589.318,159.284 		"/>
		<polygon points="589.257,159.288 590.122,152.397 591.805,158.946 		"/>
		<polygon points="591.743,158.95 592.757,152.08 594.298,158.664 		"/>
		<polygon points="594.236,158.666 595.399,151.819 596.797,158.434 		"/>
		<polygon points="596.734,158.436 598.045,151.615 599.3,158.259 		"/>
		<polygon points="599.237,158.259 600.696,151.468 601.807,158.138 		"/>
		<polygon points="601.744,158.137 603.349,151.38 604.315,158.072 		"/>
		<polygon points="604.252,158.069 606.004,151.348 606.825,158.06 		"/>
		<polygon points="606.761,158.056 608.658,151.375 609.334,158.102 		"/>
		<polygon points="609.27,158.097 611.311,151.457 611.841,158.198 		"/>
		<polygon points="611.777,158.192 613.962,151.598 614.347,158.349 		"/>
		<polygon points="614.283,158.341 616.609,151.796 616.847,158.553 		"/>
		<polygon points="616.783,158.544 619.251,152.051 619.343,158.813 		"/>
		<polygon points="619.279,158.802 621.887,152.363 621.833,159.125 		"/>
		<polygon points="621.769,159.113 624.515,152.733 624.315,159.491 		"/>
		<polygon points="624.252,159.479 627.136,153.159 626.79,159.912 		"/>
		<polygon points="626.726,159.897 629.746,153.642 629.255,160.385 		"/>
		<polygon points="629.191,160.37 632.345,154.181 631.708,160.911 		"/>
		<polygon points="631.645,160.895 634.932,154.776 634.149,161.491 		"/>
		<polygon points="634.087,161.473 637.505,155.426 636.578,162.124 		"/>
		<polygon points="636.516,162.104 640.064,156.133 638.991,162.809 		"/>
		<polygon points="638.931,162.787 642.607,156.895 641.39,163.546 		"/>
		<polygon points="641.33,163.522 645.133,157.711 643.773,164.334 		"/>
		<polygon points="643.713,164.31 647.64,158.582 646.137,165.174 		"/>
		<polygon points="646.079,165.148 650.129,159.506 648.483,166.065 		"/>
		<polygon points="648.425,166.038 652.597,160.485 650.809,167.006 		"/>
		<polygon points="650.751,166.977 655.042,161.517 653.114,167.998 		"/>
		<polygon points="653.057,167.968 657.465,162.601 655.397,169.039 		"/>
		<polygon points="655.341,169.007 659.863,163.737 657.657,170.129 		"/>
		<polygon points="657.602,170.096 662.237,164.926 659.894,171.268 		"/>
		<polygon points="659.838,171.233 664.584,166.165 662.104,172.456 		"/>
		<polygon points="662.05,172.42 666.905,167.455 664.288,173.689 		"/>
		<polygon points="664.236,173.653 669.196,168.795 666.446,174.972 		"/>
		<polygon points="666.394,174.934 671.459,170.184 668.574,176.3 		"/>
		<polygon points="668.523,176.261 673.69,171.621 670.674,177.673 		"/>
		<polygon points="670.625,177.632 675.891,173.106 672.745,179.092 		"/>
		<polygon points="672.695,179.051 678.057,174.639 674.782,180.556 		"/>
		<polygon points="674.734,180.513 680.19,176.218 676.79,182.062 		"/>
		<polygon points="676.741,182.019 682.29,177.843 678.764,183.612 		"/>
		<polygon points="678.714,183.568 684.354,179.513 680.702,185.204 		"/>
		<polygon points="680.655,185.16 686.379,181.228 682.606,186.838 		"/>
		<polygon points="682.561,186.793 688.37,182.985 684.476,188.513 		"/>
		<polygon points="684.431,188.466 690.319,184.785 686.307,190.229 		"/>
		<polygon points="686.264,190.18 692.23,186.627 688.102,191.983 		"/>
		<polygon points="688.059,191.934 694.102,188.511 689.858,193.774 		"/>
		<polygon points="689.815,193.725 695.932,190.433 691.574,195.605 		"/>
		<polygon points="691.533,195.555 697.72,192.396 693.251,197.471 		"/>
		<polygon points="693.211,197.421 699.465,194.396 694.887,199.374 		"/>
		<polygon points="694.848,199.322 701.165,196.435 696.481,201.312 		"/>
		<polygon points="696.444,201.259 702.822,198.508 698.035,203.283 		"/>
		<polygon points="697.998,203.229 704.433,200.617 699.543,205.288 		"/>
		<polygon points="699.508,205.234 705.999,202.761 701.009,207.324 		"/>
		<polygon points="700.975,207.27 707.517,204.939 702.43,209.393 		"/>
		<polygon points="702.396,209.337 708.989,207.147 703.805,211.491 		"/>
		<polygon points="703.774,211.435 710.411,209.389 705.137,213.618 		"/>
		<polygon points="705.105,213.562 711.787,211.66 706.42,215.774 		"/>
		<polygon points="706.391,215.717 713.111,213.96 707.658,217.958 		"/>
		<polygon points="707.628,217.9 714.387,216.288 708.846,220.167 		"/>
		<polygon points="708.82,220.108 715.61,218.644 709.987,222.402 		"/>
		<polygon points="709.962,222.342 716.783,221.025 711.08,224.661 		"/>
		<polygon points="711.056,224.601 717.903,223.432 712.125,226.942 		"/>
		<polygon points="712.102,226.882 718.973,225.861 713.119,229.247 		"/>
		<polygon points="713.097,229.186 719.988,228.314 714.063,231.571 		"/>
		<polygon points="714.043,231.509 720.951,230.788 714.956,233.917 		"/>
		<polygon points="714.937,233.854 721.86,233.282 715.8,236.28 		"/>
		<polygon points="715.781,236.217 722.714,235.795 716.589,238.663 		"/>
		<polygon points="716.573,238.599 723.514,238.327 717.33,241.06 		"/>
		<polygon points="717.314,240.997 724.259,240.874 718.017,243.474 		"/>
		<polygon points="718.004,243.409 724.948,243.438 718.653,245.9 		"/>
		<polygon points="718.64,245.836 725.583,246.015 719.236,248.341 		"/>
		<polygon points="719.224,248.277 726.161,248.606 719.765,250.794 		"/>
		<polygon points="719.754,250.73 726.684,251.208 720.24,253.258 		"/>
		<polygon points="720.231,253.194 727.149,253.821 720.664,255.731 		"/>
		<polygon points="720.655,255.667 727.558,256.444 721.034,258.213 		"/>
		<polygon points="721.026,258.148 727.911,259.075 721.349,260.702 		"/>
		<polygon points="721.344,260.638 728.205,261.714 721.61,263.198 		"/>
		<polygon points="721.607,263.133 728.443,264.357 721.819,265.698 		"/>
		<polygon points="721.816,265.634 728.624,267.006 721.971,268.203 		"/>
		<polygon points="721.971,268.139 728.748,269.657 722.071,270.71 		"/>
		<polygon points="722.071,270.647 728.815,272.31 722.116,273.219 		"/>
		<polygon points="722.116,273.156 728.823,274.965 722.106,275.728 		"/>
		<polygon points="722.108,275.665 728.774,277.619 722.043,278.236 		"/>
		<polygon points="722.047,278.173 728.668,280.271 721.925,280.743 		"/>
		<polygon points="721.931,280.68 728.505,282.92 721.753,283.247 		"/>
		<polygon points="721.76,283.183 728.284,285.565 721.527,285.746 		"/>
		<polygon points="721.535,285.682 728.006,288.205 721.247,288.239 		"/>
		<polygon points="721.256,288.176 727.671,290.838 720.913,290.727 		"/>
		<polygon points="720.923,290.663 727.279,293.463 720.525,293.205 		"/>
		<polygon points="720.537,293.143 726.831,296.08 720.083,295.676 		"/>
		<polygon points="720.097,295.613 726.326,298.686 719.589,298.136 		"/>
		<polygon points="719.603,298.074 725.764,301.28 719.041,300.585 		"/>
		<polygon points="719.056,300.523 725.147,303.862 718.44,303.021 		"/>
		<polygon points="718.457,302.96 724.474,306.43 717.787,305.444 		"/>
		<polygon points="717.805,305.383 723.746,308.981 717.082,307.853 		"/>
		<polygon points="717.101,307.792 722.962,311.518 716.325,310.245 		"/>
		<polygon points="716.345,310.185 722.124,314.037 715.516,312.62 		"/>
		<polygon points="715.538,312.56 721.232,316.536 714.656,314.977 		"/>
		<polygon points="714.678,314.917 720.286,319.016 713.745,317.316 		"/>
		<polygon points="713.769,317.256 719.286,321.476 712.783,319.633 		"/>
		<polygon points="712.808,319.575 718.233,323.913 711.771,321.93 		"/>
		<polygon points="711.798,321.872 717.128,326.326 710.711,324.204 		"/>
		<polygon points="710.739,324.146 715.971,328.715 709.602,326.455 		"/>
		<polygon points="709.63,326.398 714.762,331.078 708.443,328.68 		"/>
		<polygon points="708.473,328.625 713.503,333.416 707.238,330.881 		"/>
		<polygon points="707.269,330.826 712.193,335.724 705.984,333.055 		"/>
		<polygon points="706.017,333.001 710.834,338.004 704.685,335.201 		"/>
		<polygon points="704.717,335.147 709.426,340.254 703.338,337.319 		"/>
		<polygon points="703.372,337.266 707.97,342.474 701.947,339.407 		"/>
		<polygon points="701.981,339.355 706.465,344.66 700.511,341.464 		"/>
		<polygon points="700.546,341.414 704.914,346.814 699.03,343.491 		"/>
		<polygon points="699.066,343.44 703.316,348.935 697.506,345.483 		"/>
		<polygon points="697.543,345.435 701.674,351.02 695.939,347.444 		"/>
		<polygon points="695.978,347.395 699.986,353.068 694.331,349.369 		"/>
		<polygon points="694.37,349.321 698.255,355.08 692.68,351.26 		"/>
		<polygon points="692.721,351.212 696.48,357.054 690.989,353.114 		"/>
		<polygon points="691.031,353.067 694.664,358.989 689.258,354.931 		"/>
		<polygon points="689.302,354.886 692.805,360.884 687.489,356.71 		"/>
		<polygon points="687.533,356.666 690.907,362.738 685.682,358.451 		"/>
		<polygon points="685.726,358.408 688.968,364.552 683.837,360.152 		"/>
		<polygon points="683.883,360.11 686.99,366.323 681.956,361.813 		"/>
		<polygon points="682.002,361.771 684.975,368.05 680.04,363.433 		"/>
		<polygon points="680.086,363.393 682.922,369.734 678.088,365.011 		"/>
		<polygon points="678.136,364.972 680.835,371.373 676.104,366.546 		"/>
		<polygon points="676.152,366.508 678.711,372.967 674.086,368.038 		"/>
		<polygon points="674.136,368.001 676.554,374.514 672.037,369.486 		"/>
		<polygon points="672.087,369.45 674.365,376.013 669.957,370.89 		"/>
		<polygon points="670.007,370.855 672.142,377.466 667.847,372.248 		"/>
		<polygon points="667.897,372.215 669.89,378.87 665.708,373.56 		"/>
		<polygon points="665.759,373.528 667.606,380.225 663.541,374.826 		"/>
		<polygon points="663.593,374.794 665.295,381.53 661.348,376.044 		"/>
		<polygon points="661.4,376.014 662.956,382.785 659.128,377.214 		"/>
		<polygon points="659.182,377.186 660.59,383.988 656.883,378.337 		"/>
		<polygon points="656.938,378.309 658.199,385.142 654.615,379.411 		"/>
		<polygon points="654.671,379.384 655.783,386.241 652.325,380.435 		"/>
		<polygon points="652.381,380.409 653.345,387.289 650.012,381.409 		"/>
		<polygon points="650.069,381.385 650.884,388.282 647.679,382.333 		"/>
		<polygon points="647.736,382.31 648.402,389.225 645.327,383.206 		"/>
		<polygon points="645.385,383.185 645.901,390.111 642.955,384.028 		"/>
		<polygon points="643.014,384.008 643.38,390.944 640.567,384.799 		"/>
		<polygon points="640.627,384.78 640.842,391.724 638.163,385.52 		"/>
		<polygon points="638.224,385.5 638.289,392.446 635.745,386.186 		"/>
		<polygon points="635.804,386.168 635.72,393.113 633.311,386.801 		"/>
		<polygon points="633.372,386.784 633.136,393.728 630.866,387.362 		"/>
		<polygon points="630.927,387.347 630.541,394.282 628.408,387.871 		"/>
		<polygon points="628.469,387.855 627.934,394.783 625.94,388.326 		"/>
		<polygon points="626.002,388.313 625.316,395.227 623.463,388.729 		"/>
	</g>
	<g>
		<g>
			<polygon points="468.634,302.313 473.357,306.599 467.439,305.857 			"/>
			<polygon points="468.102,304.044 472.599,308.583 466.727,307.519 			"/>
			<polygon points="467.482,305.745 471.739,310.522 465.93,309.139 			"/>
			<polygon points="466.775,307.409 470.781,312.413 465.051,310.713 			"/>
			<polygon points="465.984,309.032 469.726,314.248 464.092,312.237 			"/>
			<polygon points="465.111,310.609 468.579,316.023 463.057,313.706 			"/>
			<polygon points="464.158,312.137 467.342,317.732 461.947,315.117 			"/>
			<polygon points="463.127,313.609 466.019,319.372 460.766,316.464 			"/>
			<polygon points="462.022,315.024 464.614,320.936 459.518,317.746 			"/>
			<polygon points="460.846,316.376 463.13,322.421 458.205,318.956 			"/>
			<polygon points="459.602,317.662 461.572,323.823 456.832,320.094 			"/>
			<polygon points="458.293,318.877 459.944,325.139 455.402,321.154 			"/>
			<polygon points="456.924,320.02 458.25,326.362 453.92,322.135 			"/>
			<polygon points="455.498,321.085 456.496,327.492 452.39,323.033 			"/>
			<polygon points="454.02,322.071 454.687,328.523 450.815,323.846 			"/>
			<polygon points="452.493,322.975 452.827,329.455 449.201,324.572 			"/>
			<polygon points="450.921,323.794 450.921,330.283 447.552,325.209 			"/>
			<polygon points="449.31,324.526 448.976,331.005 445.872,325.754 			"/>
			<polygon points="447.663,325.168 446.996,331.621 444.167,326.207 			"/>
			<polygon points="445.985,325.72 444.987,332.126 442.441,326.566 			"/>
			<polygon points="444.281,326.179 442.956,332.521 440.698,326.829 			"/>
			<polygon points="442.557,326.543 440.906,332.805 438.945,326.997 			"/>
			<polygon points="440.815,326.813 438.845,332.976 437.186,327.069 			"/>
			<polygon points="439.063,326.988 436.778,333.034 435.425,327.044 			"/>
			<polygon points="437.303,327.065 434.711,332.978 433.668,326.923 			"/>
			<polygon points="435.543,327.047 432.65,332.81 431.92,326.706 			"/>
			<polygon points="433.786,326.933 430.601,332.528 430.185,326.393 			"/>
			<polygon points="432.037,326.722 428.568,332.135 428.469,325.986 			"/>
			<polygon points="430.301,326.416 426.559,331.631 426.776,325.485 			"/>
			<polygon points="428.584,326.015 424.579,331.018 425.112,324.893 			"/>
			<polygon points="426.89,325.521 422.633,330.297 423.48,324.21 			"/>
			<polygon points="425.223,324.934 420.727,329.471 421.886,323.439 			"/>
			<polygon points="423.589,324.257 418.866,328.542 420.333,322.582 			"/>
			<polygon points="421.993,323.492 417.055,327.512 418.828,321.64 			"/>
			<polygon points="420.438,322.64 415.3,326.384 417.372,320.618 			"/>
			<polygon points="418.928,321.705 413.605,325.162 415.971,319.518 			"/>
			<polygon points="417.469,320.688 411.976,323.849 414.629,318.342 			"/>
			<polygon points="416.064,319.592 410.416,322.449 413.349,317.094 			"/>
			<polygon points="414.718,318.421 408.931,320.965 412.135,315.778 			"/>
			<polygon points="413.434,317.179 407.524,319.401 410.99,314.398 			"/>
			<polygon points="412.215,315.868 406.199,317.764 409.918,312.957 			"/>
		</g>
		<g>
			<polygon points="485.112,255.333 491.276,257.835 490.415,259.336 484.385,257.335 			"/>
			<polygon points="484.302,257.665 490.466,260.167 489.604,261.667 483.575,259.666 			"/>
			<polygon points="483.491,259.996 489.655,262.498 488.793,263.999 482.764,261.998 			"/>
			<polygon points="482.681,262.328 488.844,264.829 487.983,266.33 481.953,264.329 			"/>
			<polygon points="481.87,264.659 488.034,267.161 487.172,268.661 481.143,266.66 			"/>
			<polygon points="481.06,266.99 487.223,269.492 486.361,270.993 480.332,268.992 			"/>
			<polygon points="480.249,269.322 486.413,271.823 485.551,273.324 479.521,271.323 			"/>
			<polygon points="479.438,271.653 485.602,274.155 484.74,275.655 478.711,273.654 			"/>
			<polygon points="478.627,273.984 484.792,276.486 483.93,277.987 477.9,275.986 			"/>
			<polygon points="477.817,276.316 483.98,278.818 483.119,280.318 477.089,278.317 			"/>
			<polygon points="477.006,278.647 483.17,281.149 482.309,282.65 476.279,280.648 			"/>
			<polygon points="476.195,280.979 482.359,283.48 481.498,284.981 475.468,282.98 			"/>
			<polygon points="475.385,283.31 481.549,285.812 480.687,287.313 474.658,285.312 			"/>
			<polygon points="474.574,285.642 480.738,288.143 479.876,289.644 473.847,287.643 			"/>
			<polygon points="473.764,287.973 479.928,290.475 479.066,291.975 473.036,289.974 			"/>
			<polygon points="472.953,290.304 479.117,292.806 478.255,294.307 472.226,292.306 			"/>
			<polygon points="472.143,292.636 478.306,295.137 477.445,296.638 471.415,294.637 			"/>
			<polygon points="471.332,294.967 477.496,297.469 476.634,298.969 470.604,296.968 			"/>
			<polygon points="470.521,297.298 476.685,299.8 475.823,301.301 469.794,299.3 			"/>
			<polygon points="469.71,299.63 475.875,302.132 475.013,303.632 468.983,301.631 			"/>
			<polygon points="468.9,301.961 475.063,304.463 474.202,305.964 468.173,303.962 			"/>
		</g>
	</g>
</g>
<path d="M410.46,319.989c0,0-142.813-127.728-162.533-126.731L0,194.03v-5.355h251.326c0,0,6.645,1.283,19.432,9.636
	c12.15,7.937,31.514,22.462,62.186,48.812c71.382,61.324,76.958,66.534,76.958,66.534L410.46,319.989z"/>
<polygon points="624.732,391.77 141.959,413.065 87.938,413.065 623.463,388.729 "/>
<g>
	<g>
		<path fill="#F9A715" d="M888.992,473.001c0,5.5-4.5,10-10,10h-70.876c-5.5,0-10-4.5-10-10v-19.672c0-5.5,4.5-10,10-10h70.876
			c5.5,0,10,4.5,10,10V473.001z"/>
		<path fill="#F9A715" d="M888.992,396.674c0,5.5-4.5,10-10,10h-70.876c-5.5,0-10-4.5-10-10v-19.672c0-5.5,4.5-10,10-10h70.876
			c5.5,0,10,4.5,10,10V396.674z"/>
	</g>
</g>
<g>
	<g>
		<path fill="#FFFFFF" d="M834.111,400.893v-22.629h-8.082v-4.607h21.644v4.607h-8.063v22.629H834.111z"/>
		<path fill="#FFFFFF" d="M867.701,396.044v4.849h-18.3c0.198-1.833,0.792-3.57,1.784-5.211c0.991-1.642,2.948-3.818,5.871-6.53
			c2.354-2.192,3.796-3.679,4.329-4.459c0.718-1.078,1.078-2.143,1.078-3.195c0-1.165-0.313-2.06-0.938-2.685
			c-0.625-0.626-1.489-0.938-2.592-0.938c-1.09,0-1.957,0.328-2.601,0.984c-0.645,0.657-1.016,1.747-1.115,3.27l-5.202-0.52
			c0.31-2.874,1.282-4.936,2.917-6.187c1.635-1.251,3.678-1.877,6.131-1.877c2.688,0,4.799,0.725,6.335,2.174
			s2.304,3.251,2.304,5.407c0,1.227-0.22,2.394-0.659,3.502c-0.44,1.108-1.137,2.27-2.09,3.483
			c-0.632,0.806-1.771,1.964-3.418,3.475c-1.647,1.511-2.691,2.515-3.13,3.01c-0.44,0.495-0.796,0.979-1.068,1.449H867.701z"/>
	</g>
	<g>
		<path fill="#FFFFFF" d="M830.839,477.695v-22.629h-8.082v-4.607h21.644v4.607h-8.063v22.629H830.839z"/>
		<path fill="#FFFFFF" d="M860.156,477.695h-5.221v-19.675c-1.907,1.784-4.155,3.103-6.744,3.957v-4.737
			c1.362-0.445,2.842-1.291,4.44-2.536c1.598-1.244,2.694-2.696,3.289-4.356h4.236V477.695z"/>
	</g>
</g>
<circle fill="#B3A9A2" stroke="#231F20" stroke-width="2" stroke-miterlimit="10" cx="1446.935" cy="740.777" r="5.728"/>
<polygon fill="#B3A9A2" stroke="#231F20" stroke-width="2" stroke-miterlimit="10" points="1460.921,716.844 1446.488,740.777 
	1432,716.844 "/>
<rect x="1410.5" y="430.208" fill="#917063" width="841.5" height="5.409"/>
<rect x="1410.5" y="424.799" fill="#4E4347" width="841.5" height="5.409"/>
<rect x="1410.5" y="419.39" fill="#917063" width="841.5" height="5.409"/>
<rect x="1410.5" y="413.98" fill="#4E4347" width="841.5" height="5.409"/>
<rect x="1410.5" y="408.571" fill="#917063" width="841.5" height="5.409"/>
<polygon fill="#BAB5B1" stroke="#231F20" stroke-width="2" stroke-miterlimit="10" points="2252,452.857 1446.758,452.857 
	1401.261,435.617 2252,435.617 "/>
<path d="M755.012,456.667c0,0-13.436-11.416-70.303-14.54S185.349,436.736,0,440.682v6.247c0,0,356.627-7.75,701.674,0.091
	l9.885,0.74l6.228,0.866l4.336,0.786l6.16,1.398l4.65,1.281l4.18,1.309l3.62,1.264l4.335,1.693l4.09,1.753l3.24,1.521
	L755.012,456.667z"/>
<g>
	<circle fill="#A54A4F" stroke="#000000" stroke-width="2" stroke-miterlimit="10" cx="1144.344" cy="402.249" r="26.888"/>
	<circle fill="#A54A4F" stroke="#000000" stroke-width="2" stroke-miterlimit="10" cx="1333.166" cy="427.165" r="26.888"/>
	<circle fill="#A54A4F" stroke="#000000" stroke-width="2" stroke-miterlimit="10" cx="1147.28" cy="486.203" r="26.888"/>
	<circle fill="#A54A4F" stroke="#000000" stroke-width="2" stroke-miterlimit="10" cx="1337.606" cy="513.091" r="26.888"/>
	<g>
		<g>
			<circle fill="#A54A4F" stroke="#000000" stroke-width="2" stroke-miterlimit="10" cx="1884.065" cy="458.629" r="26.364"/>
			<circle fill="#A54A4F" stroke="#000000" stroke-width="2" stroke-miterlimit="10" cx="1880.17" cy="379.726" r="26.364"/>
		</g>
	</g>
	<circle fill="#A54A4F" stroke="#000000" stroke-width="2" stroke-miterlimit="10" cx="243.692" cy="218.804" r="25.282"/>
	<circle fill="#A54A4F" stroke="#000000" stroke-width="2" stroke-miterlimit="10" cx="436.626" cy="294.253" r="33.021"/>
	<circle fill="#A54A4F" stroke="#000000" stroke-width="2" stroke-miterlimit="10" cx="697.068" cy="573.501" r="126.572"/>
	<circle fill="#A54A4F" stroke="#000000" stroke-width="2" stroke-miterlimit="10" cx="534.47" cy="521.214" r="36.041"/>
	<circle fill="#A54A4F" stroke="#000000" stroke-width="2" stroke-miterlimit="10" cx="606.133" cy="274.042" r="115.96"/>
	<circle fill="#A54A4F" stroke="#000000" stroke-width="2" stroke-miterlimit="10" cx="322.298" cy="464.307" r="22.947"/>
</g>
</svg>
